<svg width="679" height="319" viewBox="0 0 679 319" fill="none" xmlns="http://www.w3.org/2000/svg">
<g filter="url(#filter0_d_3987_882)">
<path d="M123.32 170.581C123.196 170.263 122.505 168.421 121.248 165.057C119.992 161.692 118.377 157.336 116.404 151.987C114.41 146.585 112.235 140.642 109.879 134.157C107.502 127.62 105.11 120.966 102.703 114.196C100.275 107.372 97.9921 100.92 95.8551 94.8398C93.6974 88.7063 91.878 83.3585 90.3971 78.7964C88.9161 74.2343 87.9341 70.9459 87.451 68.9313C92.2895 65.8117 97.4119 62.9481 102.818 60.3406C108.278 57.7123 113.847 55.2859 119.526 53.0614C126.797 50.2132 133.635 48.7591 140.039 48.6991C146.475 48.5652 152.133 50.1141 157.01 53.3456C161.941 56.5564 165.799 61.7177 168.585 68.8296C171.225 75.5699 172.407 82.0246 172.13 88.1936C171.906 94.3418 169.961 99.8479 166.296 104.712C162.63 109.576 157.056 113.474 149.573 116.405C148.405 116.862 146.84 117.322 144.879 117.784C142.917 118.247 141.572 118.406 140.843 118.264C141.383 119.643 142.318 122.185 143.646 125.889C145.007 129.519 146.497 133.557 148.116 138.004C149.715 142.397 151.209 146.525 152.6 150.388C153.991 154.251 155.003 157.069 155.636 158.841C154.149 159.423 151.963 160.249 149.076 161.318C146.263 162.42 143.191 163.563 139.859 164.745C136.601 165.961 133.465 167.097 130.451 168.155C127.49 169.192 125.113 170.001 123.32 170.581ZM130.147 93.069C130.899 92.9579 131.774 92.7684 132.771 92.5003C133.821 92.2114 134.744 91.9111 135.54 91.5992C137.504 90.83 139.11 89.7724 140.358 88.4265C141.606 87.0806 142.394 85.5779 142.724 83.9184C143.106 82.2381 142.955 80.5223 142.269 78.7709C141.104 75.7988 139.476 74.1412 137.382 73.798C135.342 73.4341 132.889 73.8135 130.023 74.9361C128.961 75.3519 127.894 75.8312 126.821 76.3739C125.801 76.8959 124.781 77.4178 123.762 77.9398C123.865 78.2051 124.105 78.8155 124.479 79.7708C124.885 80.6522 125.365 81.7195 125.917 82.9724C126.469 84.2254 127.004 85.5153 127.524 86.8421C128.097 88.1482 128.612 89.385 129.07 90.5526C129.559 91.6464 129.918 92.4852 130.147 93.069Z" fill="white"/>
<path d="M96.9357 245.453C95.1982 248.703 92.6021 251.922 89.1473 255.109C85.6925 258.296 81.3522 261.025 76.1263 263.295C70.9574 265.562 64.9028 266.914 57.9625 267.35C49.1449 267.905 41.3309 266.254 34.5206 262.399C27.7635 258.483 22.3677 253.054 18.3331 246.112C14.2949 239.112 12.0058 231.318 11.4656 222.728C10.9112 213.91 12.2877 205.828 15.5952 198.481C18.9596 191.13 23.8658 185.139 30.3138 180.507C36.7619 175.875 44.4231 173.281 53.2976 172.723C58.645 172.386 63.6159 172.873 68.2102 174.184C72.8578 175.433 77.0701 177.482 80.8472 180.328C84.6243 183.175 87.9323 186.736 90.7712 191.013L68.5043 204.749C68.3122 204.418 67.9671 203.926 67.4691 203.272C66.9711 202.618 66.2437 201.95 65.287 201.267C64.3836 200.525 63.2332 199.94 61.8357 199.514C60.4382 199.088 58.7439 198.937 56.7528 199.063C53.3965 199.274 50.6199 200.077 48.4231 201.471C46.2831 202.862 44.7194 204.788 43.7319 207.249C42.7444 209.71 42.3579 212.647 42.5725 216.06C42.7156 218.336 43.2143 220.817 44.0687 223.505C44.923 226.192 46.3514 228.473 48.3539 230.346C50.3528 232.162 53.1158 232.959 56.6428 232.737C58.8046 232.601 60.8293 232.103 62.7169 231.242C64.601 230.324 66.2486 229.278 67.6598 228.104C69.1278 226.926 70.3149 225.824 71.2212 224.796C72.1239 223.711 72.7032 222.932 72.959 222.459L96.9357 245.453Z" fill="white"/>
<path d="M199.187 106.53C200.261 105.932 201.816 105.34 203.852 104.754C205.924 104.162 207.944 103.69 209.911 103.338C211.556 103.044 213.375 102.792 215.368 102.583C217.396 102.368 219.073 102.253 220.399 102.237C221.205 104.676 221.921 107.132 222.548 109.604C223.168 112.039 223.696 114.473 224.131 116.905C225.135 122.521 225.578 127.886 225.46 133C225.371 138.073 224.554 142.685 223.008 146.837C221.456 150.954 219.027 154.396 215.72 157.166C212.456 159.964 208.16 161.84 202.831 162.794C197.215 163.798 192.385 163.518 188.341 161.953C184.302 160.424 180.909 157.857 178.16 154.252C175.411 150.647 173.145 146.235 171.363 141.017C169.58 135.8 168.126 130.044 167 123.749C166.61 121.567 166.249 119.343 165.917 117.077C165.615 114.769 165.328 112.44 165.055 110.089C166.216 109.771 167.72 109.41 169.567 109.005C171.443 108.559 173.15 108.198 174.688 107.923C176.941 107.52 179.214 107.224 181.506 107.036C183.833 106.841 185.676 106.825 187.033 106.988C187.2 108.951 187.428 111.254 187.716 113.897C187.998 116.504 188.385 119.185 188.878 121.939C189.53 125.587 190.325 129.099 191.261 132.475C192.226 135.809 193.405 138.477 194.797 140.479C196.224 142.475 197.957 143.291 199.996 142.926C201.927 142.581 203.218 141.335 203.867 139.189C204.517 137.042 204.748 134.417 204.562 131.313C204.37 128.173 203.982 124.976 203.4 121.721C202.85 118.646 202.182 115.738 201.397 113C200.612 110.261 199.875 108.105 199.187 106.53Z" fill="white"/>
<path d="M133.107 259.157C123.558 260.866 115.824 259.721 109.904 255.723C104.014 251.684 100.224 244.943 98.5349 235.5C97.3704 228.991 97.6982 223.396 99.5183 218.715C101.332 213.998 104.324 210.196 108.495 207.309C112.66 204.386 117.711 202.394 123.648 201.332C129.514 200.283 134.654 200.747 139.068 202.726C143.511 204.662 147.153 207.794 149.994 212.121C152.829 216.412 154.79 221.598 155.878 227.678C156.838 233.043 156.618 237.899 155.218 242.246C153.818 246.594 151.26 250.244 147.543 253.197C143.856 256.109 139.044 258.095 133.107 259.157ZM128.964 240.022C130.288 239.786 131.483 239.35 132.551 238.716C133.648 238.04 134.546 237.178 135.244 236.131C135.978 235.077 136.474 233.825 136.732 232.376C136.983 230.892 136.945 229.238 136.619 227.414C136.184 224.982 135.428 222.921 134.35 221.231C133.266 219.506 131.955 218.264 130.417 217.506C128.873 216.712 127.17 216.481 125.311 216.814C123.057 217.217 121.36 218.148 120.218 219.607C119.113 221.06 118.434 222.731 118.181 224.622C117.929 226.513 117.956 228.316 118.263 230.033C118.846 233.288 120.068 235.893 121.931 237.848C123.795 239.803 126.139 240.528 128.964 240.022Z" fill="white"/>
<path d="M356.6 159.416C356.371 158.756 356.015 157.694 355.532 156.23C355.078 154.724 354.537 152.938 353.909 150.873C353.281 148.808 352.586 146.57 351.822 144.16C351.095 141.743 350.357 139.273 349.611 136.749C349.158 136.904 348.392 137.262 347.312 137.825C346.26 138.345 345.216 138.901 344.177 139.493C343.156 137.498 342.166 134.851 341.207 131.553C340.241 128.219 339.477 124.979 338.914 121.831C339.217 121.667 339.641 121.461 340.188 121.216C340.764 120.928 341.358 120.638 341.97 120.344C342.617 120.043 343.217 119.788 343.77 119.578C344.353 119.327 344.799 119.136 345.108 119.007C344.692 117.716 344.316 116.436 343.978 115.167C343.634 113.863 343.347 112.568 343.116 111.28C342.361 107.06 342.492 102.939 343.507 98.9189C344.552 94.8564 346.598 91.3346 349.645 88.3534C352.692 85.3722 356.826 83.4146 362.048 82.4804C365.16 81.9237 367.836 81.7217 370.078 81.8742C372.32 82.0268 374.212 82.3896 375.754 82.9627C377.326 83.4936 378.62 84.1293 379.639 84.8699C380.651 85.5747 381.453 86.2432 382.046 86.8753C381.43 88.7942 380.632 91.0408 379.653 93.6151C378.71 96.183 377.795 98.5982 376.908 100.861C376.014 103.088 375.355 104.664 374.93 105.588C374.35 105.028 373.732 104.566 373.076 104.204C372.45 103.799 371.822 103.487 371.193 103.267C370.556 103.012 369.954 102.843 369.386 102.76C368.817 102.677 368.282 102.681 367.782 102.77C366.637 102.975 365.713 103.38 365.01 103.986C364.342 104.585 363.888 105.349 363.648 106.278C363.437 107.165 363.431 108.162 363.63 109.271C363.719 109.772 363.827 110.269 363.952 110.764C364.113 111.252 364.355 111.78 364.679 112.35C365.752 112.158 367.099 111.954 368.722 111.737C370.344 111.521 371.898 111.335 373.383 111.18C374.905 111.019 376.015 110.931 376.713 110.917C377.415 113.19 378.087 115.912 378.728 119.082C379.405 122.246 379.97 125.098 380.425 127.637C380.103 127.695 379.283 127.86 377.966 128.133C376.649 128.405 375.246 128.711 373.757 129.052C372.261 129.356 371.091 129.621 370.245 129.846C370.529 130.607 370.974 131.857 371.58 133.594C372.222 135.324 372.938 137.263 373.728 139.41C374.511 141.522 375.274 143.618 376.016 145.7C376.793 147.776 377.472 149.61 378.052 151.205C378.662 152.756 379.069 153.791 379.272 154.308C377.571 154.908 375.374 155.522 372.681 156.152C370.024 156.775 367.251 157.363 364.36 157.917C361.476 158.507 358.889 159.007 356.6 159.416Z" fill="white"/>
<path d="M411.194 158.995C406.725 158.977 402.64 158.361 398.939 157.147C395.238 155.896 392.285 153.886 390.08 151.116C387.875 148.346 386.781 144.671 386.8 140.094C386.819 135.407 388.16 131.706 390.823 128.992C393.487 126.241 396.928 124.293 401.147 123.147C405.367 121.965 409.802 121.384 414.453 121.402C415.979 121.409 417.431 121.542 418.811 121.802C420.227 122.025 421.479 122.339 422.568 122.743C423.656 123.111 424.49 123.514 425.07 123.952C425.073 123.189 424.895 122.335 424.535 121.389C424.176 120.442 423.67 119.677 423.018 119.093C422.113 118.254 420.99 117.523 419.648 116.9C418.306 116.277 416.4 115.96 413.93 115.95C411.568 115.941 409.386 116.495 407.383 117.613C405.38 118.732 403.849 119.943 402.79 121.246L386.537 110.717C388.217 108.471 390.496 106.518 393.373 104.858C396.287 103.162 399.544 101.849 403.145 100.919C406.782 99.9891 410.544 99.532 414.432 99.5477C421.081 99.5745 426.381 100.577 430.334 102.555C434.323 104.497 437.308 107.379 439.291 111.202C440.193 112.913 440.93 114.824 441.503 116.933C442.076 119.043 442.502 121.334 442.783 123.806C442.958 125.478 443.078 127.24 443.143 129.094C443.245 130.911 443.292 132.819 443.284 134.817C443.272 137.832 443.536 139.814 444.077 140.761C444.655 141.671 445.434 142.129 446.415 142.133C447.251 142.136 448.014 142.048 448.705 141.869C449.433 141.654 449.942 141.402 450.234 141.112L456.117 155.361C455.569 156.122 454.403 156.916 452.62 157.745C450.836 158.537 448.437 158.927 445.421 158.915C443.277 158.906 441.171 158.57 439.103 157.908C437.071 157.246 435.349 156.312 433.937 155.108C432.561 153.867 431.768 152.392 431.557 150.684C431.079 152.099 429.983 153.457 428.27 154.758C426.557 156.023 424.282 157.049 421.445 157.837C418.608 158.625 415.191 159.011 411.194 158.995ZM415.999 143.372C417.307 143.378 418.688 143.183 420.143 142.79C421.635 142.396 422.981 141.929 424.182 141.389C425.383 140.849 426.221 140.38 426.695 139.982C426.587 139.582 426.481 138.982 426.375 138.182C426.306 137.346 426.272 136.728 426.273 136.329C425.621 136.035 424.423 135.776 422.68 135.551C420.973 135.29 419.32 135.156 417.722 135.15C416.232 135.144 414.742 135.247 413.251 135.459C411.797 135.671 410.578 136.066 409.595 136.643C408.612 137.184 408.118 138 408.114 139.089C408.11 140.07 408.415 140.871 409.03 141.491C409.646 142.111 410.534 142.587 411.695 142.919C412.893 143.214 414.328 143.366 415.999 143.372Z" fill="white"/>
<path d="M341.088 264.418C336.619 264.4 332.534 263.784 328.833 262.57C325.132 261.32 322.179 259.31 319.974 256.539C317.768 253.769 316.675 250.095 316.693 245.517C316.712 240.83 318.053 237.13 320.717 234.415C323.38 231.665 326.822 229.717 331.041 228.571C335.26 227.389 339.695 226.807 344.346 226.826C345.872 226.832 347.325 226.965 348.705 227.225C350.121 227.449 351.373 227.763 352.461 228.167C353.55 228.534 354.384 228.938 354.963 229.376C354.966 228.613 354.788 227.758 354.429 226.812C354.069 225.866 353.564 225.101 352.912 224.517C352.007 223.678 350.884 222.947 349.542 222.323C348.2 221.7 346.294 221.384 343.823 221.374C341.461 221.364 339.279 221.919 337.276 223.037C335.273 224.155 333.743 225.366 332.684 226.67L316.43 216.14C318.111 213.894 320.39 211.942 323.267 210.282C326.18 208.586 329.437 207.273 333.038 206.343C336.675 205.413 340.438 204.956 344.325 204.971C350.974 204.998 356.275 206 360.227 207.978C364.216 209.92 367.202 212.803 369.185 216.626C370.086 218.337 370.824 220.247 371.396 222.357C371.969 224.467 372.396 226.757 372.677 229.229C372.852 230.901 372.972 232.664 373.037 234.517C373.138 236.334 373.185 238.242 373.177 240.24C373.165 243.256 373.43 245.237 373.971 246.184C374.548 247.095 375.328 247.552 376.309 247.556C377.144 247.559 377.908 247.472 378.599 247.293C379.326 247.078 379.836 246.825 380.128 246.536L386.011 260.784C385.463 261.545 384.297 262.34 382.513 263.168C380.73 263.96 378.33 264.35 375.315 264.338C373.171 264.33 371.065 263.994 368.997 263.332C366.965 262.67 365.242 261.736 363.83 260.531C362.455 259.29 361.661 257.816 361.45 256.107C360.972 257.522 359.877 258.88 358.164 260.182C356.451 261.446 354.176 262.473 351.339 263.261C348.501 264.048 345.085 264.434 341.088 264.418ZM345.892 248.796C347.2 248.801 348.582 248.607 350.037 248.213C351.528 247.819 352.874 247.353 354.076 246.812C355.277 246.272 356.114 245.803 356.588 245.406C356.481 245.005 356.374 244.405 356.269 243.606C356.199 242.77 356.165 242.152 356.167 241.752C355.514 241.459 354.316 241.2 352.573 240.975C350.866 240.714 349.214 240.58 347.615 240.573C346.126 240.567 344.635 240.67 343.145 240.882C341.691 241.094 340.472 241.489 339.489 242.067C338.505 242.608 338.012 243.423 338.007 244.513C338.003 245.494 338.309 246.295 338.924 246.915C339.539 247.535 340.427 248.011 341.589 248.343C342.787 248.638 344.221 248.789 345.892 248.796Z" fill="white"/>
<path d="M251.634 101.467C252.38 99.9836 253.541 98.5626 255.117 97.2035C256.696 95.8082 258.602 94.706 260.836 93.897C263.108 93.054 265.586 92.7151 268.27 92.8802C269.902 92.9807 271.504 93.2613 273.078 93.7221C274.651 94.183 275.748 94.6873 276.37 95.2352L270.856 116.519C270.112 116.182 269.153 115.795 267.979 115.359C266.806 114.886 265.531 114.608 264.153 114.523C262.775 114.438 261.456 114.575 260.196 114.934C258.975 115.26 257.814 115.789 256.713 116.522C255.649 117.257 254.609 118.176 253.595 119.279C253.771 121.146 253.968 123.579 254.183 126.577C254.436 129.578 254.663 132.686 254.866 135.902C255.068 139.117 255.216 142.039 255.309 144.665C255.441 147.258 255.471 149.135 255.399 150.295C252.145 150.532 248.483 150.598 244.412 150.493C240.341 150.388 236.366 150.216 232.486 149.977C232.66 147.148 232.778 143.752 232.84 139.788C232.94 135.79 232.981 131.57 232.964 127.128C232.946 122.686 232.868 118.331 232.73 114.063C232.629 109.798 232.465 105.948 232.24 102.512C232.017 99.0399 231.746 96.3295 231.43 94.3807C233.716 93.9026 236.18 93.49 238.823 93.143C241.503 92.7619 243.887 92.4718 245.975 92.2726C248.062 92.0735 249.378 91.9725 249.925 91.9697C250.304 92.9031 250.704 94.3838 251.126 96.4119C251.549 98.4036 251.718 100.089 251.634 101.467Z" fill="white"/>
<path d="M479.976 257.908C479.321 257.904 477.901 257.908 475.716 257.919C473.568 257.932 471.279 257.864 468.849 257.715C467.181 257.612 465.462 257.452 463.691 257.234C461.955 257.054 460.223 256.802 458.496 256.477C458.699 255.543 459.016 253.652 459.446 250.802C459.876 247.953 460.337 244.596 460.83 240.731C461.361 236.833 461.882 232.806 462.392 228.651C462.903 224.496 463.343 220.592 463.714 216.938C464.084 213.284 464.339 210.333 464.477 208.085C465.424 208.07 466.771 208.08 468.516 208.115C470.297 208.152 472.206 208.196 474.241 208.249C476.276 208.301 478.22 208.366 480.071 208.444C481.925 208.485 483.396 208.539 484.484 208.606C484.662 209.855 484.737 211.898 484.708 214.735C484.681 217.537 484.562 220.66 484.35 224.105C484.149 227.369 483.886 230.756 483.56 234.267C483.237 237.742 482.868 241.086 482.452 244.301C482.074 247.481 481.665 250.277 481.226 252.689C480.786 255.1 480.369 256.84 479.976 257.908ZM475.445 201.989C471.637 201.754 468.441 200.466 465.855 198.122C463.305 195.781 462.144 192.761 462.372 189.062C462.523 186.596 463.288 184.514 464.667 182.815C466.046 181.116 467.761 179.857 469.814 179.037C471.905 178.182 474.057 177.823 476.269 177.96C479.823 178.178 482.727 179.485 484.982 181.881C487.274 184.279 488.309 187.273 488.088 190.863C487.88 194.236 486.546 196.993 484.084 199.135C481.661 201.243 478.782 202.194 475.445 201.989Z" fill="white"/>
<path d="M159.585 250.412C159.572 248.263 159.607 245.335 159.689 241.627C159.81 237.885 159.951 233.817 160.113 229.422C160.312 224.993 160.509 220.619 160.702 216.299C160.933 211.945 161.139 208.008 161.319 204.488C161.5 200.968 161.645 198.301 161.757 196.488C162.863 196.265 164.33 196.082 166.159 195.94C167.99 195.762 169.946 195.627 172.026 195.537C174.109 195.41 176.062 195.33 177.884 195.297C179.742 195.265 181.233 195.284 182.358 195.353C182.356 195.972 182.332 196.662 182.285 197.424C182.276 198.151 182.25 198.878 182.205 199.603C182.161 200.328 182.119 200.999 182.081 201.616C182.046 202.196 182.016 202.686 181.991 203.085C182.21 202.479 182.73 201.729 183.549 200.832C184.369 199.936 185.459 199.075 186.821 198.249C188.221 197.389 189.846 196.706 191.697 196.201C193.585 195.699 195.689 195.519 198.01 195.661C200.294 195.802 202.228 196.321 203.811 197.22C205.394 198.118 206.707 199.254 207.751 200.629C208.797 201.968 209.619 203.401 210.216 204.931C210.469 205.565 210.682 206.233 210.858 206.936C211.035 207.602 211.177 208.248 211.284 208.873C212.354 206.864 213.928 204.959 216.004 203.157C218.081 201.356 220.499 199.921 223.258 198.853C226.056 197.751 229.033 197.298 232.188 197.492C236.83 197.777 240.591 198.773 243.471 200.479C246.351 202.185 248.512 204.63 249.954 207.813C251.432 210.998 252.355 214.932 252.722 219.614C253.089 224.296 253.082 229.737 252.701 235.939C252.578 237.933 252.413 240.016 252.207 242.188C252.039 244.325 251.829 246.551 251.578 248.865C251.362 251.182 251.123 253.588 250.86 256.083C249.224 256.055 247.516 256.005 245.737 255.932C243.992 255.897 242.267 255.827 240.563 255.723C238.749 255.611 236.938 255.463 235.13 255.279C233.357 255.097 231.569 254.878 229.764 254.621C230.822 249.262 231.744 244.332 232.531 239.83C233.318 235.328 233.814 231.409 234.019 228.073C234.256 224.229 234.02 221.248 233.314 219.129C232.607 217.011 231.22 215.888 229.153 215.761C227.231 215.642 225.597 216.161 224.252 217.316C222.945 218.437 221.86 220.099 220.996 222.303C220.135 224.47 219.41 227.083 218.821 230.141C218.269 233.201 217.788 236.575 217.379 240.263C217.141 242.36 216.896 244.565 216.645 246.879C216.431 249.159 216.249 251.533 216.097 253.999C215.261 253.983 214.026 253.944 212.392 253.88C210.791 253.854 209.085 253.785 207.271 253.674C205.132 253.542 203.085 253.38 201.131 253.187C199.212 253.032 197.838 252.875 197.011 252.715C197.09 250.244 197.176 247.956 197.269 245.851C197.401 243.711 197.538 241.481 197.681 239.16C197.933 235.062 198.085 231.413 198.136 228.213C198.187 225.012 198.045 222.292 197.71 220.051C197.375 217.809 196.753 216.078 195.846 214.858C194.974 213.639 193.722 212.98 192.091 212.879C191.075 212.817 190.05 212.918 189.014 213.181C188.015 213.448 187.044 213.843 186.102 214.367C185.196 214.894 184.391 215.554 183.687 216.348C182.983 217.142 182.4 218.035 181.938 219.025C181.801 224.805 181.692 230.131 181.61 235.004C181.565 239.879 181.521 243.844 181.479 246.899C181.473 249.957 181.474 251.704 181.484 252.142C181.047 252.151 180.047 252.126 178.485 252.066C176.96 252.009 175.617 251.944 174.457 251.873C171.555 251.694 168.658 251.461 165.763 251.174C162.905 250.889 160.846 250.635 159.585 250.412Z" fill="white"/>
<path d="M503.782 150.135C502.226 151.895 500.143 153.51 497.531 154.979C494.92 156.447 491.826 157.502 488.251 158.141C484.712 158.787 480.758 158.735 476.389 157.985C470.839 157.032 466.235 154.859 462.578 151.467C458.963 148.044 456.415 143.883 454.933 138.984C453.458 134.049 453.184 128.878 454.113 123.471C455.066 117.92 457.108 113.11 460.24 109.039C463.407 104.975 467.331 101.981 472.012 100.056C476.692 98.1316 481.826 97.6488 487.412 98.6078C490.778 99.1857 493.79 100.219 496.446 101.707C499.145 103.166 501.457 105.056 503.381 107.377C505.305 109.698 506.833 112.393 507.965 115.463L492.134 120.708C492.063 120.475 491.922 120.118 491.709 119.64C491.496 119.161 491.143 118.639 490.65 118.075C490.199 117.482 489.572 116.95 488.768 116.48C487.963 116.011 486.935 115.668 485.681 115.453C483.569 115.09 481.728 115.18 480.161 115.722C478.629 116.27 477.376 117.234 476.402 118.615C475.427 119.996 474.756 121.761 474.387 123.91C474.141 125.342 474.085 126.955 474.22 128.747C474.354 130.54 474.905 132.164 475.872 133.621C476.844 135.041 478.441 135.942 480.661 136.323C482.022 136.556 483.351 136.545 484.648 136.288C485.952 135.996 487.127 135.59 488.175 135.069C489.259 134.555 490.157 134.045 490.871 133.541C491.59 133.001 492.064 132.603 492.292 132.347L503.782 150.135Z" fill="white"/>
<path d="M512.477 260.319C502.916 258.678 496.032 254.971 491.825 249.198C487.66 243.396 486.389 235.768 488.012 226.314C489.131 219.797 491.342 214.646 494.646 210.864C497.956 207.045 502.063 204.487 506.967 203.191C511.878 201.859 517.305 201.703 523.249 202.724C529.122 203.732 533.798 205.917 537.276 209.279C540.795 212.611 543.155 216.795 544.355 221.83C545.562 226.83 545.642 232.373 544.597 238.461C543.675 243.832 541.816 248.324 539.021 251.936C536.226 255.549 532.579 258.111 528.08 259.624C523.622 261.108 518.422 261.34 512.477 260.319ZM515.089 240.916C516.414 241.143 517.687 241.14 518.906 240.907C520.168 240.645 521.305 240.14 522.318 239.392C523.367 238.65 524.259 237.642 524.994 236.368C525.735 235.057 526.263 233.489 526.576 231.662C526.994 229.227 526.984 227.032 526.545 225.077C526.113 223.086 525.303 221.472 524.114 220.236C522.931 218.963 521.409 218.168 519.547 217.848C517.291 217.461 515.378 217.759 513.808 218.743C512.274 219.733 511.067 221.074 510.187 222.766C509.307 224.458 508.719 226.164 508.424 227.883C507.864 231.141 508.128 234.007 509.215 236.479C510.302 238.951 512.26 240.43 515.089 240.916Z" fill="white"/>
<path d="M559.782 150.272C558.885 151.244 557.526 152.282 555.704 153.384C553.922 154.454 551.706 155.299 549.054 155.92C546.4 156.577 543.354 156.74 539.919 156.41C535.325 155.968 531.582 154.659 528.689 152.483C525.832 150.31 523.797 147.559 522.584 144.23C521.371 140.901 520.951 137.302 521.323 133.432C521.529 131.298 521.752 129.166 521.993 127.036C522.271 124.909 522.54 122.873 522.8 120.927C523.064 118.944 523.314 117.107 523.549 115.414C523.825 113.688 524.061 112.178 524.259 110.883C524.493 109.592 524.666 108.55 524.779 107.758C522.404 107.785 520.025 107.848 517.643 107.947C515.3 108.014 513.594 108.105 512.524 108.221C512.305 105.572 512.213 102.917 512.25 100.256C512.251 97.5915 512.306 95.3154 512.415 93.4278C512.49 91.5005 512.547 90.338 512.586 89.9402C514.744 89.8923 516.915 89.9004 519.099 89.9644C521.322 89.9958 523.759 90.0843 526.41 90.2297C526.386 89.7164 526.4 88.6228 526.452 86.9487C526.543 85.2419 526.612 83.7702 526.658 82.5336C526.74 81.3004 526.787 80.0457 526.801 78.7695C526.817 77.4571 526.823 76.4538 526.817 75.7597L546.919 75.6677C546.848 76.0259 546.732 76.8542 546.571 78.1527C546.445 79.4547 546.296 81.0099 546.122 82.8182C546.014 83.9393 545.91 85.2069 545.811 86.6209C545.711 88.0348 545.621 89.541 545.54 91.1392C546.813 91.1887 548.249 91.2538 549.847 91.3345C551.485 91.3826 552.758 91.432 553.665 91.4828C555.086 91.51 556.287 91.5525 557.267 91.6102C558.283 91.6715 559.098 91.7317 559.713 91.7908C560.364 91.8535 560.816 91.8969 561.069 91.9213C561.146 94.1553 561.066 96.8852 560.829 100.111C560.628 103.34 560.404 106.239 560.157 108.807C559.795 108.772 558.651 108.716 556.723 108.64C554.796 108.565 552.923 108.494 551.104 108.428C549.868 108.383 548.465 108.357 546.896 108.352C545.366 108.315 544.237 108.297 543.506 108.3C543.408 108.947 543.275 109.756 543.109 110.725C542.979 111.698 542.836 112.798 542.682 114.024C542.531 115.214 542.371 116.495 542.203 117.865C542.038 119.2 541.871 120.553 541.703 121.924C541.574 123.262 541.449 124.564 541.327 125.83C541.091 128.289 540.978 130.413 540.988 132.203C541.034 133.996 541.336 135.412 541.893 136.451C542.454 137.454 543.421 138.022 544.796 138.154C545.664 138.237 546.459 138.131 547.18 137.836C547.902 137.54 548.559 137.165 549.15 136.711C549.745 136.221 550.285 135.725 550.772 135.225C551.267 136.148 551.954 137.346 552.835 138.818C553.715 140.29 554.627 141.819 555.569 143.406C556.548 144.997 557.414 146.431 558.167 147.708C558.96 148.952 559.498 149.807 559.782 150.272Z" fill="white"/>
<path d="M650.043 258.508C645.234 259.273 640.933 259.405 637.137 258.906C633.348 258.441 630.241 257.758 627.816 256.856C625.392 255.954 623.787 255.235 623.003 254.697C623.062 253.915 623.322 252.66 623.783 250.931C624.274 249.16 624.868 247.227 625.564 245.129C626.297 243.026 627.052 241.066 627.83 239.25C628.602 237.398 629.32 236.015 629.984 235.1C632.025 236.136 634.117 237.146 636.261 238.13C638.404 239.113 640.456 239.872 642.417 240.406C644.414 240.935 646.131 241.085 647.566 240.857C648.391 240.725 649.097 240.539 649.685 240.299C650.308 240.053 650.752 239.724 651.018 239.314C651.32 238.898 651.419 238.367 651.316 237.721C651.202 237.004 650.494 236.252 649.192 235.466C647.889 234.68 646.3 233.939 644.423 233.244C642.577 232.508 640.769 231.894 638.998 231.403C636.191 230.636 633.471 229.615 630.841 228.341C628.24 227.026 625.989 225.25 624.088 223.014C622.223 220.772 621.005 217.857 620.435 214.269C619.847 210.573 620.465 207.292 622.29 204.427C624.11 201.525 626.693 199.146 630.04 197.289C633.417 195.391 637.097 194.124 641.08 193.491C644.488 192.949 648.264 192.863 652.407 193.234C656.586 193.6 660.23 194.657 663.342 196.406C663.246 197.194 662.902 198.5 662.309 200.323C661.716 202.147 660.949 204.145 660.007 206.318C659.065 208.492 658.01 210.536 656.843 212.45C655.335 211.292 653.443 210.269 651.168 209.38C648.928 208.485 646.75 208.206 644.633 208.543C643.879 208.663 643.119 208.857 642.353 209.127C641.586 209.396 640.965 209.77 640.49 210.251C640.009 210.695 639.822 211.258 639.931 211.94C640.045 212.658 640.473 213.27 641.216 213.777C641.959 214.285 643.049 214.774 644.485 215.244C645.951 215.673 647.76 216.176 649.912 216.754C651.641 217.214 653.62 217.856 655.848 218.679C658.07 219.466 660.245 220.537 662.374 221.89C664.532 223.202 666.396 224.856 667.964 226.851C669.568 228.84 670.595 231.252 671.046 234.086C671.788 238.751 671.272 242.788 669.496 246.198C667.721 249.607 665.102 252.342 661.64 254.401C658.214 256.454 654.349 257.823 650.043 258.508Z" fill="white"/>
<path d="M296.75 110.49C297.496 109.007 298.658 107.586 300.234 106.227C301.812 104.832 303.718 103.73 305.952 102.921C308.224 102.078 310.702 101.739 313.386 101.904C315.018 102.004 316.621 102.285 318.194 102.746C319.767 103.207 320.865 103.711 321.486 104.259L315.972 125.542C315.228 125.205 314.269 124.819 313.095 124.382C311.923 123.91 310.647 123.631 309.269 123.546C307.891 123.462 306.572 123.599 305.313 123.958C304.091 124.283 302.93 124.813 301.83 125.546C300.765 126.281 299.726 127.2 298.711 128.302C298.888 130.17 299.084 132.603 299.3 135.601C299.552 138.601 299.779 141.709 299.982 144.925C300.184 148.141 300.332 151.062 300.425 153.689C300.557 156.282 300.587 158.158 300.516 159.319C297.261 159.555 293.599 159.621 289.528 159.516C285.458 159.411 281.482 159.24 277.602 159.001C277.776 156.172 277.894 152.776 277.956 148.812C278.056 144.814 278.098 140.594 278.08 136.151C278.062 131.709 277.984 127.354 277.846 123.087C277.745 118.822 277.581 114.971 277.356 111.536C277.133 108.064 276.863 105.353 276.546 103.404C278.832 102.926 281.296 102.514 283.939 102.167C286.62 101.786 289.004 101.496 291.091 101.296C293.178 101.097 294.495 100.996 295.041 100.993C295.42 101.927 295.821 103.407 296.242 105.436C296.665 107.427 296.835 109.112 296.75 110.49Z" fill="white"/>
<path d="M408.734 255.497C407.364 255.667 405.667 255.86 403.644 256.075C401.661 256.322 399.621 256.558 397.526 256.782C395.93 256.907 394.044 257.05 391.867 257.211C389.731 257.404 388.28 257.511 387.514 257.533C387.466 254.5 387.283 250.971 386.965 246.947C386.684 242.918 386.299 238.499 385.81 233.69C385.322 228.881 384.759 223.77 384.122 218.358C383.517 212.904 382.851 207.257 382.124 201.416C383.792 200.989 385.791 200.576 388.121 200.176C390.446 199.74 392.763 199.378 395.071 199.091C396.765 198.88 398.394 198.733 399.958 198.648C401.518 198.527 402.903 198.483 404.116 198.515C404.151 198.804 404.23 199.434 404.351 200.408C404.468 201.345 404.58 202.393 404.687 203.552C404.826 204.669 404.934 205.681 405.01 206.587C405.498 205.208 406.605 203.661 408.332 201.945C410.059 200.229 412.194 198.7 414.736 197.358C417.31 195.976 420.057 195.104 422.978 194.74C428.494 194.054 432.87 194.644 436.105 196.512C439.375 198.375 441.852 201.508 443.535 205.912C445.25 210.276 446.535 215.901 447.392 222.787C447.661 224.951 447.917 227.592 448.158 230.71C448.432 233.788 448.651 237.02 448.815 240.404C449.012 243.748 449.093 246.905 449.06 249.875C448.168 250.059 446.768 250.288 444.862 250.562C442.96 250.872 440.945 251.159 438.818 251.424C436.511 251.711 434.325 251.947 432.261 252.13C430.201 252.35 428.716 252.48 427.806 252.52C427.969 251.181 428.127 249.075 428.282 246.2C428.433 243.288 428.468 240.044 428.389 236.465C428.346 232.883 428.118 229.433 427.706 226.116C427.392 223.592 426.904 221.437 426.242 219.652C425.612 217.827 424.64 216.483 423.324 215.622C422.04 214.72 420.263 214.41 417.991 214.693C416.585 214.868 415.177 215.317 413.766 216.042C412.35 216.731 411.011 217.593 409.749 218.629C408.518 219.624 407.422 220.676 406.462 221.784C407.139 227.228 407.637 232.109 407.954 236.427C408.303 240.704 408.529 244.429 408.631 247.601C408.732 250.774 408.767 253.406 408.734 255.497Z" fill="white"/>
<path d="M575.643 256.418C574.273 256.588 572.576 256.781 570.553 256.996C568.57 257.243 566.53 257.478 564.435 257.702C562.839 257.828 560.953 257.971 558.776 258.132C556.64 258.324 555.189 258.432 554.423 258.454C554.375 255.421 554.192 251.892 553.875 247.867C553.593 243.838 553.208 239.419 552.719 234.611C552.231 229.802 551.668 224.691 551.031 219.278C550.426 213.825 549.76 208.178 549.033 202.337C550.701 201.91 552.7 201.496 555.03 201.096C557.356 200.661 559.672 200.299 561.98 200.012C563.674 199.801 565.304 199.653 566.867 199.569C568.427 199.448 569.813 199.404 571.025 199.436C571.061 199.724 571.139 200.355 571.26 201.329C571.377 202.266 571.489 203.314 571.597 204.472C571.736 205.59 571.843 206.602 571.919 207.508C572.407 206.129 573.514 204.581 575.241 202.865C576.968 201.149 579.103 199.621 581.645 198.279C584.219 196.897 586.967 196.024 589.887 195.661C595.403 194.974 599.779 195.565 603.014 197.433C606.284 199.296 608.761 202.429 610.444 206.833C612.159 211.196 613.445 216.821 614.301 223.708C614.571 225.871 614.826 228.512 615.068 231.631C615.341 234.709 615.56 237.94 615.725 241.325C615.921 244.669 616.003 247.826 615.969 250.796C615.077 250.98 613.678 251.209 611.771 251.483C609.869 251.793 607.854 252.08 605.727 252.345C603.42 252.632 601.234 252.867 599.17 253.051C597.11 253.27 595.625 253.4 594.715 253.44C594.878 252.102 595.037 249.995 595.192 247.12C595.342 244.209 595.378 240.964 595.298 237.386C595.255 233.803 595.027 230.353 594.615 227.036C594.301 224.512 593.813 222.358 593.151 220.573C592.522 218.747 591.549 217.404 590.233 216.542C588.95 215.64 587.172 215.331 584.9 215.613C583.494 215.788 582.086 216.238 580.675 216.963C579.259 217.652 577.92 218.514 576.658 219.55C575.427 220.545 574.331 221.597 573.371 222.705C574.048 228.149 574.546 233.03 574.863 237.347C575.212 241.624 575.438 245.349 575.54 248.522C575.642 251.695 575.676 254.326 575.643 256.418Z" fill="white"/>
<path d="M269.347 264.981C268.022 258.863 266.572 252.497 264.997 245.883C263.421 239.269 261.827 232.792 260.215 226.452C258.628 220.068 257.137 214.166 255.743 208.746C254.339 203.291 253.123 198.651 252.097 194.826C251.071 191 250.349 188.335 249.93 186.83C252.382 185.205 255.292 183.736 258.66 182.422C262.018 181.073 265.343 179.941 268.633 179.026C269.133 180.282 269.641 181.631 270.154 183.072C270.659 184.478 271.086 185.811 271.436 187.071C271.763 186.075 272.516 184.715 273.696 182.992C274.876 181.268 276.55 179.558 278.718 177.861C280.886 176.165 283.598 174.864 286.853 173.958C294.099 171.943 299.987 172.775 304.518 176.455C309.074 180.091 312.487 185.987 314.755 194.143C316.342 199.848 316.55 205.07 315.379 209.808C314.243 214.537 312.069 218.517 308.857 221.748C305.645 224.98 301.746 227.233 297.16 228.509C295.165 229.064 293.107 229.391 290.985 229.491C288.888 229.546 286.985 229.415 285.275 229.099C283.566 228.782 282.324 228.317 281.55 227.703C281.803 228.613 282.162 230.04 282.627 231.985C283.118 233.885 283.66 236.035 284.252 238.435C284.853 240.869 285.443 243.327 286.019 245.806C286.596 248.286 287.118 250.573 287.588 252.667C288.067 254.797 288.424 256.489 288.66 257.743C286.476 258.841 284.141 259.867 281.654 260.823C279.202 261.769 276.87 262.606 274.659 263.334C272.483 264.053 270.712 264.602 269.347 264.981ZM288.268 209.146C289.983 208.669 291.413 207.913 292.559 206.878C293.704 205.843 294.486 204.588 294.906 203.114C295.316 201.605 295.272 199.957 294.776 198.172C294.075 195.652 292.962 193.887 291.437 192.878C289.902 191.834 287.682 191.717 284.776 192.525C282.956 193.031 281.414 193.724 280.15 194.603C278.876 195.448 277.852 196.374 277.076 197.382C276.326 198.345 275.747 199.316 275.341 200.297C275.468 200.752 275.611 201.334 275.771 202.044C275.956 202.709 276.133 203.414 276.302 204.159C276.507 204.894 276.679 205.581 276.819 206.221C276.995 206.851 277.113 207.346 277.176 207.706C277.901 208.145 278.742 208.59 279.697 209.041C280.677 209.447 281.861 209.703 283.247 209.807C284.634 209.912 286.308 209.692 288.268 209.146Z" fill="white"/>
<rect x="314.41" y="138.427" width="21" height="12" transform="rotate(-2.70316 314.41 138.427)" fill="#F7F7F7"/>
</g>
<defs>
<filter id="filter0_d_3987_882" x="4.49902" y="38.498" width="673.818" height="239.589" filterUnits="userSpaceOnUse" color-interpolation-filters="sRGB">
<feFlood flood-opacity="0" result="BackgroundImageFix"/>
<feColorMatrix in="SourceAlpha" type="matrix" values="0 0 0 0 0 0 0 0 0 0 0 0 0 0 0 0 0 0 127 0" result="hardAlpha"/>
<feOffset dy="4"/>
<feGaussianBlur stdDeviation="2"/>
<feComposite in2="hardAlpha" operator="out"/>
<feColorMatrix type="matrix" values="0 0 0 0 0 0 0 0 0 0 0 0 0 0 0 0 0 0 0.25 0"/>
<feBlend mode="normal" in2="BackgroundImageFix" result="effect1_dropShadow_3987_882"/>
<feBlend mode="normal" in="SourceGraphic" in2="effect1_dropShadow_3987_882" result="shape"/>
</filter>
</defs>
</svg>
