<svg width="218" height="67" viewBox="0 0 218 67" fill="none" xmlns="http://www.w3.org/2000/svg">
<g id="chain_x2F_hedera">
<g id="Group">
<path id="Fill-4" fill-rule="evenodd" clip-rule="evenodd" d="M96.1537 31.3817H79.1634V18.7676H74.8369V48.3849H79.1634V35.5418H96.1537V48.3849H100.48V18.7676H96.1537V31.3817Z" fill="#F7F7F7"/>
<path id="Fill-6" fill-rule="evenodd" clip-rule="evenodd" d="M115.372 27.1642C109.541 27.1642 105.104 31.8396 105.104 38.0035C105.104 44.2247 109.653 48.8429 115.706 48.8429C122.651 48.8429 125.083 44.0529 125.418 42.3927L125.473 42.1064H121.481L121.425 42.2209C121.37 42.3354 120.033 44.9689 115.762 44.9689C112.215 44.9689 109.597 42.3927 109.263 38.6905H125.696V38.4615C125.696 31.8396 121.425 27.1642 115.372 27.1642ZM115.372 30.8091C118.213 30.8091 120.144 32.2976 121.091 35.141H109.541C110.358 32.3548 112.475 30.8091 115.372 30.8091Z" fill="#F7F7F7"/>
<path id="Fill-8" fill-rule="evenodd" clip-rule="evenodd" d="M145.787 30.4656C144.784 29.0344 142.519 27.1642 138.787 27.1642C132.901 27.1642 128.797 31.6106 128.797 38.0036C128.797 44.3965 132.901 48.8429 138.787 48.8429C142.779 48.8429 144.952 46.5529 145.787 45.3697V48.3467H149.835V17.6798H145.787V30.4656ZM139.511 44.969C135.686 44.969 133.068 42.1065 133.068 38.0036C133.068 33.9006 135.742 31.0381 139.511 31.0381C143.28 31.0381 145.899 33.9006 145.899 38.0036C145.899 42.1065 143.243 44.969 139.511 44.969Z" fill="#F7F7F7"/>
<path id="Fill-10" fill-rule="evenodd" clip-rule="evenodd" d="M164.95 27.1642C159.12 27.1642 154.682 31.8396 154.682 38.0035C154.682 44.2247 159.231 48.8429 165.284 48.8429C172.229 48.8429 174.661 44.0529 174.996 42.3927L175.051 42.1064H171.059L171.003 42.2209C170.948 42.3354 169.611 44.9689 165.34 44.9689C161.793 44.9689 159.175 42.3927 158.841 38.6905H175.274V38.4615C175.219 31.8396 171.003 27.1642 164.95 27.1642ZM164.95 30.8091C167.791 30.8091 169.722 32.2976 170.669 35.141H159.12C159.899 32.3548 162.016 30.8091 164.95 30.8091Z" fill="#F7F7F7"/>
<path id="Fill-12" fill-rule="evenodd" clip-rule="evenodd" d="M183.891 30.6374V27.6222H179.824V48.3849H183.872V36.6868C183.872 33.0419 185.71 31.6679 190.483 31.6679H195.756V27.5077H190.594C186.546 27.5077 184.726 29.3206 183.891 30.6374Z" fill="#F7F7F7"/>
<g id="Group-16">
<path id="Fill-14" fill-rule="evenodd" clip-rule="evenodd" d="M213.765 30.4658C212.986 29.3208 210.924 27.1644 206.988 27.1644C202.104 27.1644 197.165 30.8666 197.165 38.0038C197.165 44.3967 201.213 48.8431 206.988 48.8431C210.757 48.8431 212.818 46.7821 213.765 45.4272V48.4042H217.813V27.6224H213.765V30.4658ZM213.877 38.0038C213.877 42.0494 211.259 44.9692 207.712 44.9692C203.998 44.9692 201.38 42.1067 201.38 38.0038C201.38 33.9008 203.998 31.0383 207.712 31.0383C211.259 31.0383 213.877 33.9963 213.877 38.0038Z" fill="#F7F7F7"/>
</g>
</g>
<path id="Fill-1" fill-rule="evenodd" clip-rule="evenodd" d="M24.5469 35.3701H41.0172V31.1527H24.5469V35.3701Z" fill="#F7F7F7"/>
<path id="Fill-2" fill-rule="evenodd" clip-rule="evenodd" d="M44.6005 46.6483H40.8497V38.4807H24.3793V46.6483H20.6656V20.1416H24.4164V28.1184H40.8868V20.1416H44.6377V46.6292H44.6005V46.6483ZM32.6238 0.409424C14.835 0.409424 0.407227 15.2372 0.407227 33.519C0.407227 51.8008 14.835 66.6286 32.6238 66.6286C50.4125 66.6286 64.8403 51.8199 64.8403 33.519C64.8403 15.2181 50.4125 0.409424 32.6238 0.409424Z" fill="#F7F7F7"/>
</g>
</svg>
