<svg width="112" height="50" viewBox="0 0 112 50" fill="none" xmlns="http://www.w3.org/2000/svg">
<g id="strayhome 1" clip-path="url(#clip0_3987_575)">
<path id="Vector" fill-rule="evenodd" clip-rule="evenodd" d="M19.5148 9.89063C21.1083 9.07579 21.9218 7.58184 21.9218 5.816C21.9218 2.8281 19.4472 0.451233 16.4301 0.451233H9.07386C-0.723447 0.349115 -2.24899 11.4186 4.39527 14.9158C5.27678 15.3571 6.25982 15.7307 7.20888 15.7988C7.47992 15.9005 7.41237 16.24 7.14091 16.24C5.5474 16.24 3.7848 15.7988 2.46274 14.9158C0.971184 16.0026 0.327148 17.3604 0.327148 19.1943C0.327148 21.6052 2.83574 24.6271 5.71732 24.6271H13.1416C23.8879 24.6271 24.6675 11.3169 15.6162 9.24557C15.3451 9.17749 15.4467 8.80432 15.7177 8.80432C17.0737 8.90602 18.3958 9.24557 19.5144 9.89105L19.5148 9.89063ZM44.3313 5.95174C44.3313 2.96384 41.8907 0.484852 38.8732 0.484852H28.1948C25.1777 0.484852 22.8386 2.96342 22.8386 5.95174C22.8386 8.94005 25.1777 11.3165 28.1948 11.3165V19.2279C28.1948 22.2499 30.6354 24.7284 33.551 24.7284C36.4665 24.7284 39.0091 22.2499 39.0091 19.2279L38.9751 11.3165C41.9922 11.3165 44.3313 8.83794 44.3313 5.95174ZM44.8222 19.1603C44.8222 22.1822 47.2968 24.6608 50.2124 24.6608C53.128 24.6608 55.467 22.4537 55.6365 19.6015L58.5521 23.0647C60.3827 25.5433 64.0438 25.1697 65.9763 23.2345C67.9089 21.2989 68.1799 18.4467 66.6544 16.2736C65.7729 17.2923 64.7218 18.0054 63.6033 18.5148C63.3998 18.6165 63.2303 18.2769 63.3998 18.1752C65.9763 16.3758 67.5355 13.4555 67.5355 10.1281C67.5355 4.79734 63.2303 0.484852 57.9077 0.484852H50.3139C47.2968 0.484852 44.8222 2.86172 44.8222 5.84962V19.1598V19.1603ZM68.9666 17.0549C67.7121 19.6692 68.8311 22.8949 71.5092 24.1514C74.1873 25.4079 77.3739 24.2872 78.6619 21.6048L79.679 19.3977L78.7635 15.595C78.7295 15.3571 78.967 15.3235 79.0345 15.4592L81.9501 21.6048C83.2046 24.2872 86.3912 25.4075 89.0693 24.1514C91.7474 22.8949 92.866 19.6696 91.6119 17.0549L85.1371 3.40509C83.171 -0.737202 77.3063 -0.669543 75.3738 3.43913L68.9666 17.0549ZM110.147 1.97922C108.113 -0.159794 104.757 -0.159794 102.689 1.97922L100.079 4.69564L97.4006 1.97922C95.3666 -0.159794 92.0784 -0.159794 90.0444 1.97922C88.0103 4.05058 88.0103 7.47972 90.0444 9.61916L94.6886 14.3729V19.1266C94.6886 22.1145 97.1292 24.5254 100.079 24.5254C103.028 24.5254 105.503 22.1145 105.503 19.1266V14.3729L110.147 9.61916C112.181 7.48015 112.181 4.05058 110.147 1.97922Z" fill="#F2B705"/>
<g id="Group">
<path id="Vector_2" d="M19.5143 9.89077L19.3507 10.1748L19.5047 10.2639L19.6629 10.1828L19.5139 9.89077H19.5143ZM9.07341 0.451367L9.07006 0.779573H9.07341V0.451367ZM4.39482 14.916L4.24252 15.2064L4.24546 15.208L4.2484 15.2097L4.39482 14.9164V14.916ZM7.20886 15.7989L7.32382 15.4917L7.27935 15.4753L7.23194 15.472L7.20886 15.7993V15.7989ZM2.46272 14.916L2.64439 14.6428L2.45475 14.5159L2.27014 14.6504L2.46272 14.9156V14.916ZM15.6161 9.2457L15.5368 9.56382L15.5402 9.56466L15.5436 9.5655L15.6166 9.2457H15.6161ZM15.7177 8.80403L15.7424 8.47709L15.7303 8.47624H15.7181V8.80445L15.7177 8.80403ZM28.1943 11.3166H28.522V10.9884H28.1943V11.3166ZM39.0087 19.2281H39.3363V19.2268L39.0087 19.2281ZM38.9747 11.3166V10.9884H38.6457L38.6474 11.3179L38.9751 11.3162L38.9747 11.3166ZM55.6361 19.6016L55.8866 19.3903L55.3579 18.762L55.3093 19.5819L55.6361 19.6012V19.6016ZM58.5512 23.0648L58.8147 22.8698L58.8084 22.8614L58.8017 22.8535L58.5512 23.0648ZM66.6535 16.2742L66.9216 16.0855L66.6808 15.7422L66.4064 16.0595L66.6539 16.2742H66.6535ZM63.6024 18.5153L63.4669 18.2165L63.4614 18.2191L63.456 18.2216L63.6024 18.5149V18.5153ZM63.3989 18.1758L63.5676 18.4569L63.5772 18.451L63.5865 18.4447L63.3989 18.1754V18.1758ZM68.9662 17.055L69.2611 17.197L69.2619 17.1962V17.1949L68.9662 17.055ZM78.6619 21.6049L78.9569 21.747L78.9581 21.7449L78.9594 21.7423L78.6619 21.6049ZM79.6789 19.3978L79.9764 19.5352L80.0243 19.4319L79.9974 19.3209L79.6789 19.3978ZM78.7635 15.5951L78.4391 15.6413L78.4412 15.6569L78.445 15.672L78.7635 15.5951ZM79.0345 15.4594L79.3303 15.3186L79.3286 15.3156L79.3269 15.3127L79.0341 15.4594H79.0345ZM81.9501 21.6049L82.2467 21.4658L82.2459 21.4641L81.9501 21.6049ZM91.6118 17.055L91.3161 17.1958L91.3169 17.197L91.6123 17.055H91.6118ZM102.688 1.97935L102.453 1.75117L102.452 1.75201L102.688 1.97935H102.688ZM110.147 1.97935L109.91 2.20544L109.911 2.20754L109.913 2.20965L110.147 1.97935ZM100.078 4.69578L99.8454 4.92607L100.081 5.1656L100.314 4.92313L100.078 4.69578ZM97.4002 1.97935L97.1631 2.20544L97.1652 2.20754L97.1673 2.20965L97.4002 1.97935ZM90.0439 1.97935L90.2776 2.20965L90.2793 2.20754L90.281 2.20544L90.0439 1.97935ZM90.0439 9.61887L89.8069 9.84496L89.8086 9.84664L89.8102 9.84832L90.0443 9.61887H90.0439ZM94.6881 14.3726H95.0158V14.2386L94.9222 14.1427L94.6881 14.3722V14.3726ZM105.502 14.3726L105.268 14.1432L105.175 14.239V14.373H105.503L105.502 14.3726ZM110.147 9.61887L110.381 9.84832L110.382 9.84664L110.384 9.84496L110.147 9.61887H110.147ZM21.5937 5.81613C21.5937 7.47103 20.8381 8.84521 19.3654 9.5987L19.6633 10.1828C21.3768 9.30622 22.2486 7.6925 22.2486 5.81613H21.5937ZM16.4297 0.779573C19.2752 0.779573 21.5941 3.0186 21.5941 5.81613H22.2491C22.2491 2.63787 19.6184 0.123161 16.4297 0.123161V0.779153V0.779573ZM9.07341 0.779573H16.4297V0.123161H9.07341V0.779153V0.779573ZM4.54713 14.6256C1.37185 12.9539 0.142935 9.47221 0.886827 6.41161C1.62484 3.37413 4.3172 0.729985 9.06964 0.779573L9.07635 0.123581C4.0319 0.0706309 1.06346 2.91018 0.250344 6.25654C-0.556903 9.57937 0.773963 13.3808 4.24252 15.2068L4.54713 14.626V14.6256ZM7.23194 15.4715C6.34581 15.4081 5.40766 15.0563 4.54125 14.6227L4.2484 15.2097C5.14501 15.6585 6.17337 16.054 7.18536 16.1263L7.23194 15.472V15.4715ZM7.14089 16.5684C7.43165 16.5684 7.65612 16.373 7.70101 16.1141C7.74674 15.8506 7.59696 15.5942 7.32382 15.4917L7.0939 16.1061C7.09977 16.1082 7.08425 16.1032 7.06956 16.0792C7.05614 16.0561 7.0511 16.0284 7.05572 16.0015C7.06033 15.975 7.07418 15.9506 7.09516 15.933C7.11781 15.914 7.13795 15.9119 7.14089 15.9119V16.5679V16.5684ZM2.28105 15.1887C3.66688 16.1141 5.49577 16.5679 7.14089 16.5679V15.9119C5.5994 15.9119 3.90267 15.4833 2.64439 14.6428L2.28105 15.1887ZM0.654387 19.194C0.654387 18.3166 0.808368 17.5702 1.12892 16.9201C1.44905 16.2704 1.94497 15.6985 2.65488 15.1812L2.26972 14.6504C1.48807 15.2194 0.916196 15.8699 0.541523 16.6293C0.16727 17.3882 -0.000976562 18.238 -0.000976562 19.1936H0.653967L0.654387 19.194ZM5.7173 24.2991C4.39147 24.2991 3.12522 23.6015 2.18077 22.5908C1.23423 21.5776 0.654806 20.2959 0.654806 19.1944H-0.000556996C-0.000556996 20.5039 0.674526 21.9386 1.70246 23.0392C2.73292 24.1423 4.16155 24.9555 5.7173 24.9555V24.2995V24.2991ZM13.1411 24.2991H5.71688V24.9551H13.1411V24.2991ZM15.5431 9.5655C19.8919 10.5606 21.8673 14.2407 21.4775 17.6761C21.2828 19.3945 20.4957 21.0468 19.1174 22.2693C17.7412 23.4901 15.758 24.2991 13.1415 24.2991V24.9551C15.8981 24.9551 18.0421 24.0999 19.5517 22.7606C21.0592 21.423 21.9164 19.618 22.1282 17.7501C22.552 14.0125 20.3912 10.0017 15.6887 8.9259L15.5431 9.5655ZM15.7177 8.47624C15.416 8.47624 15.2033 8.68804 15.1458 8.92002C15.1164 9.03768 15.1219 9.17762 15.192 9.3058C15.2654 9.43985 15.3908 9.52768 15.5364 9.56382L15.6954 8.92758C15.7055 8.9301 15.742 8.94565 15.7668 8.99062C15.7882 9.0297 15.7852 9.06332 15.7814 9.07929C15.7743 9.10744 15.7487 9.13266 15.7181 9.13266V8.47667L15.7177 8.47624ZM19.678 9.60627C18.5065 8.93094 17.1341 8.5813 15.7424 8.47709L15.6933 9.1314C17.0133 9.23057 18.285 9.56046 19.3511 10.1753L19.678 9.60669V9.60627ZM38.8727 0.813193C41.7077 0.813193 44.0032 3.14384 44.0032 5.95187H44.6581C44.6581 2.78411 42.0719 0.1572 38.8727 0.1572V0.813193ZM28.1943 0.813193H38.8727V0.1572H28.1943V0.813193ZM23.1654 5.95187C23.1654 3.13543 25.3673 0.813193 28.1939 0.813193V0.1572C24.9867 0.1572 22.51 2.7921 22.51 5.95187H23.165H23.1654ZM28.1943 10.9889C25.3635 10.9889 23.1658 8.66241 23.1658 5.95229H22.5109C22.5109 9.01415 24.9914 11.6453 28.1948 11.6453V10.9893L28.1943 10.9889ZM28.522 19.2281V11.3166H27.8671V19.2281H28.522ZM33.5505 24.4008C30.8225 24.4008 28.522 22.0756 28.522 19.2281H27.8671C27.8671 22.4244 30.4478 25.0568 33.5509 25.0568V24.4008H33.5505ZM38.681 19.2281C38.681 22.0701 36.3515 24.4008 33.5505 24.4008V25.0568C36.7162 25.0568 39.3359 22.4298 39.3359 19.2281H38.681ZM38.647 11.3183L38.681 19.2297L39.3359 19.2268L39.3019 11.3154L38.647 11.3183ZM44.0032 5.95187C44.0032 8.66241 41.8055 10.9884 38.9747 10.9884V11.6444C42.1781 11.6444 44.6586 9.01373 44.6586 5.95145H44.0036L44.0032 5.95187ZM50.2119 24.3327C47.4814 24.3327 45.1494 22.005 45.1494 19.16H44.4945C44.4945 22.3592 47.1122 24.9887 50.2124 24.9887V24.3327H50.2119ZM55.3093 19.5823C55.1502 22.2601 52.9895 24.3331 50.2119 24.3331V24.9891C53.3335 24.9891 55.7834 22.648 55.9629 19.6214L55.3088 19.5823H55.3093ZM58.8017 22.8535L55.8862 19.3903L55.3852 19.813L58.3008 23.2762L58.8017 22.8535ZM65.7439 23.0031C64.8401 23.9082 63.5235 24.4533 62.2191 24.4773C60.921 24.5012 59.6568 24.0104 58.8143 22.8703L58.2878 23.2602C59.2763 24.5987 60.7577 25.1606 62.2313 25.1337C63.6981 25.1068 65.1783 24.4974 66.2071 23.467L65.7439 23.0031ZM66.3858 16.4629C67.8165 18.5006 67.5682 21.1763 65.7443 23.0031L66.2075 23.467C68.2479 21.423 68.5424 18.3939 66.9216 16.0859L66.3858 16.4633V16.4629ZM63.7379 18.8137C64.8917 18.2884 65.9835 17.5492 66.901 16.4889L66.406 16.059C65.5605 17.0361 64.5506 17.7228 63.4669 18.2161L63.7379 18.8137ZM63.2307 17.8942C63.0872 17.9804 63.0192 18.1199 63.0054 18.251C62.9924 18.3733 63.0242 18.4889 63.0742 18.58C63.1241 18.6708 63.2068 18.7641 63.3255 18.8179C63.4543 18.8767 63.607 18.8797 63.7493 18.8087L63.4564 18.2216C63.4728 18.2132 63.4963 18.206 63.5252 18.206C63.5533 18.206 63.5781 18.2123 63.5974 18.2212C63.6326 18.2371 63.6452 18.2577 63.6486 18.264C63.6519 18.2699 63.6603 18.288 63.657 18.3212C63.6523 18.3632 63.6267 18.422 63.568 18.4573L63.2311 17.8946L63.2307 17.8942ZM67.2073 10.1282C67.2073 13.3493 65.6998 16.1683 63.2118 17.9064L63.5865 18.4447C66.2511 16.5835 67.8627 13.5624 67.8627 10.1282H67.2077H67.2073ZM57.9072 0.813193C63.0486 0.813193 67.2073 4.9786 67.2073 10.1282H67.8623C67.8623 4.61635 63.4103 0.1572 57.9072 0.1572V0.813193ZM50.3135 0.813193H57.9072V0.1572H50.3135V0.813193ZM45.1494 5.85017C45.1494 3.05264 47.468 0.813613 50.3139 0.813613V0.1572C47.1252 0.1572 44.4945 2.67149 44.4945 5.85017H45.1494ZM45.1494 19.1604V5.85017H44.4945V19.1604H45.1494ZM71.6476 23.8545C69.1352 22.6757 68.0855 19.6479 69.2615 17.197L68.6712 16.913C67.3382 19.6912 68.5264 23.1148 71.3699 24.4487L71.6476 23.8545ZM78.3665 21.4629C77.1569 23.9822 74.1642 25.0353 71.6476 23.8545L71.3699 24.4487C74.2095 25.7808 77.5903 24.5928 78.9569 21.7474L78.3665 21.4629ZM79.3815 19.2604L78.3644 21.4675L78.9594 21.7423L79.9764 19.5352L79.3815 19.2604ZM78.445 15.672L79.3605 19.4747L79.9974 19.3209L79.0819 15.5182L78.445 15.672ZM79.3274 15.3127C79.2153 15.0879 78.9636 15.0068 78.7572 15.0761C78.6485 15.1122 78.5524 15.1891 78.4937 15.2992C78.4354 15.4081 78.4232 15.5283 78.4391 15.6417L79.0878 15.5489C79.0869 15.5434 79.0916 15.5707 79.0706 15.6102C79.0483 15.6514 79.0097 15.6833 78.9644 15.6985C78.8851 15.7249 78.7861 15.6947 78.7416 15.606L79.3274 15.3127ZM82.2459 21.4641L79.3303 15.3186L78.7387 15.6001L81.6543 21.7457L82.2459 21.4641ZM88.93 23.8545C86.4122 25.0353 83.4227 23.981 82.2467 21.4658L81.6534 21.744C82.9864 24.5941 86.3694 25.78 89.2082 24.4487L88.9304 23.8545H88.93ZM91.3165 17.197C92.4921 19.6479 91.4428 22.6757 88.9304 23.8545L89.2082 24.4487C92.052 23.1148 93.2398 19.6916 91.9068 16.913L91.3165 17.197ZM84.8409 3.546L91.3156 17.1958L91.9072 16.9142L85.4325 3.26444L84.8409 3.546ZM75.6696 3.5792C77.4863 -0.28321 82.9952 -0.341623 84.8405 3.54642L85.432 3.26444C83.3451 -1.13251 77.1246 -1.05519 75.0767 3.29974L75.6696 3.5792ZM69.2624 17.1949L75.6696 3.5792L75.0771 3.29932L68.6699 16.9151L69.2624 17.1949ZM102.924 2.20754C104.864 0.200485 108.006 0.203426 109.91 2.20544L110.384 1.75285C108.22 -0.523166 104.649 -0.520225 102.453 1.75075L102.924 2.20712V2.20754ZM100.314 4.92313L102.924 2.2067L102.452 1.75159L99.8421 4.46801L100.314 4.92313ZM97.1669 2.20965L99.845 4.92607L100.311 4.46507L97.6331 1.74864L97.1669 2.20965ZM90.281 2.20544C92.1858 0.202166 95.2583 0.202166 97.1631 2.20544L97.6373 1.75285C95.4744 -0.521906 91.9697 -0.521906 89.8065 1.75285L90.2806 2.20544H90.281ZM90.281 9.39279C88.3657 7.37816 88.3707 4.15073 90.2772 2.20923L89.8102 1.74906C87.6486 3.94985 87.6541 7.58156 89.8065 9.84496L90.2806 9.39237L90.281 9.39279ZM94.9222 14.1432L90.278 9.38942L89.8098 9.84832L94.454 14.6021L94.9222 14.1432ZM95.0158 19.1264V14.3726H94.3609V19.1264H95.0158ZM100.078 24.197C97.3083 24.197 95.0158 21.9319 95.0158 19.1264H94.3609C94.3609 22.2971 96.9496 24.8534 100.079 24.8534V24.1974L100.078 24.197ZM105.175 19.1264C105.175 21.9306 102.884 24.197 100.078 24.197V24.8529C103.24 24.8529 105.83 22.2979 105.83 19.1259H105.175V19.1264ZM105.175 14.3726V19.1264H105.83V14.3726H105.175ZM109.913 9.38942L105.268 14.1432L105.737 14.6021L110.381 9.84832L109.913 9.38942ZM109.913 2.20923C111.819 4.15073 111.825 7.37816 109.909 9.39279L110.383 9.84538C112.536 7.58156 112.541 3.95027 110.379 1.74948L109.913 2.20965L109.913 2.20923Z" fill="#1E1E1E"/>
</g>
<path id="Vector_3" fill-rule="evenodd" clip-rule="evenodd" d="M103.839 41.9251C103.791 41.8167 103.737 41.715 103.678 41.6133H103.675C103.599 41.702 103.524 41.7873 103.446 41.8675C102.211 43.1455 100.554 43.4359 98.8964 43.2766C98.6589 43.2766 98.6589 42.8681 98.8964 42.8681C100.321 42.6992 101.676 42.2907 102.694 41.172V41.1703C104.104 39.7562 104.484 37.3403 103.746 35.3866C103.705 35.2765 103.659 35.1668 103.61 35.0601C103.526 35.1454 103.445 35.2273 103.359 35.3059C102.033 36.5313 100.312 36.8772 98.5591 36.6545H98.5574C98.3199 36.5528 98.3199 36.2132 98.5574 36.2132C100.591 36.146 102.185 35.5341 103.271 33.7691C105.474 30.3391 103.1 25.4492 98.8293 25.4492H89.981C86.794 25.4492 84.5225 27.8933 84.5225 30.9165V44.2259C84.5225 47.1457 86.8955 49.5915 89.9139 49.5915H98.8297C102.593 49.5915 104.185 46.3321 104.185 44.2259C104.185 43.0513 104.071 42.4298 103.839 41.9247L103.839 41.9251Z" fill="#F2B705"/>
<path id="Vector_4" fill-rule="evenodd" clip-rule="evenodd" d="M74.1027 27.7035L70.6866 31.9895L70.4768 32.2521L70.4751 32.2538L70.4734 32.2521L70.2687 31.9882L66.9491 27.7039C63.7293 23.6292 57.3896 26.0061 57.3896 30.9633V44.3415C57.3896 47.2614 60.0002 49.6727 62.6779 49.6727C65.3555 49.6727 67.5599 48.3489 67.8646 45.5981L65.2032 41.9449L64.6696 41.2116L64.6188 41.141L64.6024 41.1179L64.5764 41.0818C64.4518 40.9242 64.6435 40.8258 64.7812 40.9195C64.7845 40.9195 64.7862 40.9229 64.7895 40.9263C64.7979 40.9313 64.8059 40.9376 64.8143 40.946V40.9477L64.8634 41.007L65.4726 41.7533L65.8657 42.237C67.3233 43.9003 68.8824 45.3602 70.4415 45.3602H70.4432C72.0367 45.393 73.6974 43.9348 75.1205 42.237L75.8036 41.4482L76.177 41.0166L76.2391 40.946C76.2475 40.9376 76.2555 40.9313 76.2639 40.9263L76.2655 40.9246H76.2672C76.3998 40.8279 76.5718 40.954 76.477 41.0822L76.446 41.1246L76.4346 41.1393L76.3788 41.2162L76.0658 41.6461L73.1884 45.5976C73.4947 48.3485 75.7319 49.6723 78.3751 49.6723C81.0184 49.6723 83.6633 47.2609 83.6633 44.3411V30.9628C83.6633 26.0057 77.3254 23.6288 74.1039 27.7035H74.1027Z" fill="#F2B705"/>
<path id="Vector_5" fill-rule="evenodd" clip-rule="evenodd" d="M44.0691 25.0215C37.3561 25.0215 31.7637 30.5905 31.7637 37.3811C31.7637 44.1718 37.3565 49.6718 44.0691 49.6718C50.7818 49.6718 56.4418 44.2045 56.4418 37.3811C56.4418 30.5577 50.8833 25.0215 44.0691 25.0215ZM45.2532 32.9837C45.4185 32.2752 45.7625 31.6861 46.18 31.3057C46.5991 30.9237 47.0758 30.7611 47.5163 30.8645C47.9569 30.9662 48.3139 31.3221 48.522 31.8487C48.7284 32.3752 48.7809 33.056 48.6168 33.7646C48.4515 34.4748 48.1058 35.0635 47.69 35.4442C47.2709 35.825 46.7942 35.9872 46.3537 35.8855C45.9131 35.7821 45.5561 35.4262 45.348 34.8996C45.1416 34.3747 45.0891 33.694 45.2532 32.9837ZM40.4349 31.8483C40.643 31.3217 41 30.9658 41.4406 30.8641C41.8811 30.7607 42.3577 30.9233 42.7752 31.3053C43.1927 31.6861 43.5384 32.2748 43.702 32.9833C43.8673 33.6935 43.8149 34.3743 43.6072 34.8992C43.4008 35.4258 43.0437 35.7817 42.6032 35.8851C42.161 35.9868 41.6843 35.8246 41.2669 35.4438C40.8494 35.0631 40.5037 34.4743 40.34 33.7641C40.1764 33.0556 40.2272 32.3748 40.4349 31.8483ZM36.809 37.1025C36.5568 36.4776 36.5094 35.8443 36.6319 35.3308C36.7532 34.8156 37.0397 34.4336 37.4392 34.2709C37.8403 34.1087 38.3106 34.1856 38.7558 34.471C39.1997 34.7546 39.6058 35.2421 39.858 35.8687C40.1101 36.4936 40.1558 37.1269 40.035 37.6404C39.9121 38.1556 39.6272 38.5376 39.2261 38.7003C38.8267 38.8625 38.3563 38.7856 37.9112 38.5019C37.4673 38.2166 37.0611 37.7295 36.809 37.1029V37.1025ZM47.1807 44.2327L44.3276 43.7045L41.8564 44.2327C38.9643 44.5147 38.4956 43.1745 38.6219 42.4694C39.6864 38.9444 42.6162 37.3563 43.9479 37.0054C46.8383 37.2874 48.5761 40.7649 49.0838 42.4694C49.0838 44.1621 47.8146 44.3508 47.1807 44.2327ZM51.4682 37.4551C51.216 38.08 50.8099 38.567 50.366 38.8528C49.9204 39.1381 49.4505 39.2138 49.0511 39.0512C48.65 38.8889 48.3651 38.5082 48.2422 37.993C48.1209 37.4778 48.1666 36.8449 48.4192 36.22C48.6714 35.5951 49.0775 35.1081 49.5214 34.8223C49.967 34.537 50.4369 34.4596 50.838 34.6223C51.2374 34.7845 51.524 35.1669 51.6453 35.6821C51.7682 36.1956 51.7208 36.8285 51.4682 37.4551Z" fill="#F2B705"/>
<path id="Vector_6" d="M42.3027 36.1786C41.9011 36.1786 41.4912 36.0021 41.1212 35.6647C40.6563 35.2415 40.3097 34.6149 40.1448 33.9005C39.98 33.187 40.016 32.4717 40.2472 31.8872C40.4784 31.3022 40.8766 30.9173 41.3683 30.8034C41.8596 30.6882 42.3862 30.8588 42.8502 31.2833C43.3147 31.7065 43.6612 32.3322 43.8261 33.0453C43.9919 33.7581 43.9558 34.4729 43.7237 35.0587C43.4947 35.6433 43.0973 36.0286 42.6048 36.1442C42.5049 36.1673 42.4038 36.1786 42.3023 36.1786H42.3027ZM41.6708 31.0967C41.5936 31.0967 41.5172 31.1055 41.4426 31.1232C41.0582 31.2118 40.7423 31.5262 40.5518 32.0082C40.3454 32.5314 40.3139 33.1773 40.4641 33.827C40.6139 34.4767 40.9257 35.0432 41.3419 35.4222C41.7241 35.7706 42.1466 35.9135 42.5313 35.8252C42.9152 35.7353 43.2308 35.4205 43.4196 34.9394V34.9385C43.6272 34.4149 43.6583 33.769 43.5077 33.1206C43.3575 32.4717 43.0461 31.9057 42.6299 31.5266C42.3224 31.245 41.9893 31.0971 41.6708 31.0971V31.0967Z" fill="#1E1E1E"/>
<path id="Vector_7" d="M38.7517 39.0478C38.4387 39.0478 38.1089 38.944 37.7875 38.7394C37.2895 38.4191 36.8758 37.8951 36.6215 37.2631C36.3656 36.6293 36.3001 35.9649 36.4373 35.3922C36.5724 34.8173 36.8942 34.4004 37.3423 34.2184C37.79 34.0377 38.3107 34.1134 38.8087 34.4323C39.3055 34.75 39.7196 35.2736 39.9743 35.9065C40.229 36.5373 40.2944 37.2021 40.1589 37.7774C40.0217 38.3532 39.6995 38.77 39.2518 38.9512C39.0932 39.0159 38.9245 39.0474 38.7512 39.0474L38.7517 39.0478ZM37.8429 34.4508C37.7111 34.4508 37.584 34.4748 37.4653 34.5227C37.1183 34.6635 36.8661 34.9992 36.7558 35.4678V35.4686C36.6345 35.9754 36.6945 36.5692 36.9253 37.1403C37.1544 37.7098 37.5236 38.1796 37.9641 38.4628C38.3707 38.7217 38.7848 38.7877 39.1293 38.6473C39.4763 38.507 39.7284 38.1712 39.8404 37.7018C39.9604 37.1925 39.9004 36.5982 39.6709 36.0297C39.4414 35.4594 39.0726 34.9904 38.6325 34.7088C38.3657 34.5378 38.0955 34.4508 37.8429 34.4508Z" fill="#1E1E1E"/>
<path id="Vector_8" d="M41.084 44.5339C39.7871 44.5339 39.1342 44.149 38.8082 43.7952C38.4898 43.4497 38.3467 42.9803 38.4256 42.5399L38.4302 42.5214C39.5047 38.9628 42.4589 37.3184 43.8711 36.9465L43.8993 36.939L43.9286 36.9419C46.8731 37.2294 48.6681 40.7177 49.2055 42.5218L49.2122 42.5689C49.2122 43.2732 49.005 43.8027 48.5963 44.1431C48.1428 44.5205 47.5335 44.5713 47.1152 44.4936L44.2945 43.9712L41.8367 44.4953C41.5644 44.5218 41.3139 44.5339 41.0835 44.5339H41.084ZM38.7461 42.6067C38.7231 42.745 38.6874 43.1808 39.0486 43.5729C39.3818 43.9343 40.129 44.3314 41.796 44.17L44.2903 43.6371L47.1752 44.1713C47.5214 44.236 48.0211 44.1956 48.3869 43.891C48.7125 43.6199 48.8799 43.1833 48.8845 42.5929C48.3622 40.8611 46.6676 37.5613 43.9257 37.2714C42.5655 37.6416 39.7741 39.2175 38.7461 42.6067Z" fill="#1E1E1E"/>
<path id="Vector_9" d="M49.4557 39.3994C49.282 39.3994 49.113 39.3674 48.9535 39.3023C48.5058 39.1212 48.1836 38.7047 48.0468 38.1302C47.9109 37.5532 47.9763 36.8884 48.231 36.2576C48.4857 35.6269 48.8994 35.1033 49.3966 34.7834C49.895 34.4641 50.4157 34.3884 50.863 34.5695C51.3119 34.7519 51.6333 35.1688 51.7684 35.7437C51.9052 36.3152 51.8397 36.9805 51.5838 37.6159C51.3291 38.2466 50.9154 38.7703 50.4182 39.0901C50.0981 39.2951 49.7687 39.3994 49.4553 39.3994H49.4557ZM50.3624 34.8015C50.1103 34.8015 49.8396 34.8885 49.5728 35.0595C49.1327 35.3428 48.7639 35.8118 48.5344 36.3804C48.3049 36.9489 48.2449 37.5432 48.3649 38.0542C48.4765 38.5219 48.729 38.8572 49.076 38.998C49.4222 39.1384 49.8363 39.0728 50.2416 38.8131C50.6817 38.5299 51.0509 38.0609 51.28 37.4923C51.5104 36.9199 51.5708 36.3253 51.4495 35.8189C51.3392 35.3499 51.0874 35.0142 50.74 34.873C50.6213 34.8251 50.4946 34.8011 50.3628 34.8011L50.3624 34.8015Z" fill="#1E1E1E"/>
<path id="Vector_10" d="M46.583 36.1788C46.4819 36.1788 46.3812 36.1674 46.2817 36.1447C45.7896 36.0292 45.3914 35.6438 45.1607 35.0592C44.9303 34.4734 44.8942 33.7582 45.0583 33.0459C45.2253 32.3306 45.5718 31.7049 46.0346 31.2834C46.5003 30.859 47.0269 30.6888 47.5186 30.8039C48.0099 30.9174 48.4077 31.3019 48.6389 31.8873C48.8692 32.4748 48.9053 33.1896 48.7412 33.9006C48.5751 34.6146 48.2285 35.2408 47.7653 35.6644H47.7649C47.3936 36.0023 46.9833 36.1788 46.583 36.1788ZM47.2161 31.0972C46.8977 31.0972 46.5641 31.2447 46.2553 31.5263C45.8412 31.9037 45.5295 32.4697 45.3776 33.1203C45.2282 33.7683 45.2593 34.4142 45.4657 34.9391C45.6558 35.4202 45.9721 35.735 46.356 35.8253C46.7387 35.9132 47.1612 35.7707 47.5451 35.4223C47.9596 35.0429 48.2713 34.4764 48.4228 33.8271C48.5722 33.1804 48.5411 32.5344 48.3347 32.0083C48.1446 31.5267 47.8283 31.2128 47.4448 31.1241C47.3701 31.1065 47.2937 31.0977 47.2161 31.0977V31.0972Z" fill="#1E1E1E"/>
<path id="Vector_11" fill-rule="evenodd" clip-rule="evenodd" d="M25.4273 25.3611C22.4106 25.3611 19.9688 27.7707 19.9688 30.725V31.9487C19.9688 32.3211 19.6297 32.6606 19.2236 32.6606C18.8175 32.6606 18.4785 32.3211 18.4785 31.9487V30.725C18.4785 27.7035 16.1054 25.3611 13.087 25.3611C10.0687 25.3611 7.69727 27.7035 7.69727 30.725V44.1033C7.69727 47.1593 10.1375 49.5017 13.087 49.5017C16.0366 49.5017 18.4785 47.1593 18.4785 44.1033V42.9485C18.4785 42.5417 18.8175 42.2021 19.2236 42.2021C19.6297 42.2021 19.9688 42.5417 19.9688 42.9485V44.1033C19.9688 47.092 22.4106 49.5017 25.4273 49.5017C28.444 49.5017 30.8171 47.092 30.8171 44.1033V30.725C30.8171 27.7707 28.3769 25.3611 25.4273 25.3611Z" fill="#F2B705"/>
<g id="Group_2">
<g id="Group_3">
<path id="Vector_12" d="M98.9742 24.9983H90.126V25.6543H98.9742V24.9983Z" fill="#1E1E1E"/>
<path id="Vector_13" d="M98.9746 24.9983V25.6543C102.966 25.6543 105.214 30.2391 103.139 33.4669L103.406 33.6392L103.416 33.646L103.691 33.8233C103.691 33.8233 103.694 33.8183 103.694 33.8166C106.02 30.1866 103.522 24.9983 98.9746 24.9983Z" fill="#1E1E1E"/>
<path id="Vector_14" d="M103.416 33.6459L103.406 33.6392L103.136 33.4736C102.625 34.3053 102.001 34.855 101.272 35.2092C100.542 35.5635 99.6873 35.7274 98.703 35.7618H98.6934L98.703 36.0652V36.4178H98.7097C98.7097 36.4178 98.7131 36.4178 98.7148 36.4161V36.4178H98.7181C98.7294 36.4178 98.7412 36.4161 98.7525 36.4161C99.2698 36.3981 99.7645 36.3439 100.234 36.2438C100.701 36.1438 101.143 36.0009 101.558 35.7992C102.404 35.3908 103.119 34.7528 103.692 33.8229C103.693 33.8212 103.695 33.8178 103.695 33.8161L103.416 33.6455L103.416 33.6459Z" fill="#1E1E1E"/>
<path id="Vector_15" d="M98.8329 36.2295L98.7568 36.4052C98.7767 36.3967 98.7966 36.3837 98.8147 36.3627C98.8494 36.3249 98.8545 36.2887 98.8545 36.2724C98.8545 36.2446 98.8397 36.2329 98.8329 36.2299V36.2295Z" fill="#1E1E1E"/>
<path id="Vector_16" d="M98.7194 36.4165H98.7143C98.7143 36.4165 98.7109 36.4182 98.7093 36.4182H98.7026V35.7622H98.6929C98.5536 35.7656 98.421 35.8198 98.3245 35.9261C98.2326 36.0312 98.1982 36.1589 98.1982 36.2724C98.1982 36.4955 98.3291 36.7283 98.575 36.8334L98.7026 36.535V36.5317H98.7042L98.7516 36.4169L98.7567 36.4056C98.7437 36.4123 98.7307 36.4153 98.7189 36.4169L98.7194 36.4165Z" fill="#1E1E1E"/>
<path id="Vector_17" d="M103.755 34.9369V34.9352L103.517 34.7087C102.609 35.6652 101.467 36.1376 100.234 36.2443C99.7493 36.2855 99.2496 36.2703 98.7453 36.2065L98.7193 36.4166L98.7176 36.4183H98.7143V36.4166C98.7143 36.4166 98.7109 36.4183 98.7092 36.4183H98.7025V36.0901C98.465 36.0901 98.465 36.4296 98.7025 36.5313H98.7042L98.7025 36.5347L98.6614 36.8578C100.442 37.0843 102.23 36.7477 103.63 35.508C103.719 35.4311 103.806 35.3488 103.891 35.2635C103.925 35.2307 103.958 35.1962 103.991 35.1618L103.755 34.9369Z" fill="#1E1E1E"/>
<path id="Vector_18" d="M104.052 34.7996L103.755 34.9357L103.457 35.0719C103.474 35.108 103.49 35.1458 103.505 35.1832C103.552 35.29 103.593 35.398 103.631 35.5081C104.268 37.3319 103.887 39.5352 102.607 40.8161L103.071 41.2805C103.074 41.2771 103.079 41.2721 103.082 41.2691C104.674 39.6634 105.015 36.9058 104.052 34.7996H104.052Z" fill="#1E1E1E"/>
<path id="Vector_19" d="M102.84 41.0489V41.0472L102.831 41.0405L102.822 41.0308L102.597 40.8274C101.66 41.8591 100.404 42.2495 99.0203 42.4184C99.0152 42.4184 99.0089 42.4201 99.0039 42.4201L99.0417 42.7382V42.8252C99.045 42.8252 99.0484 42.8252 99.0513 42.8269L99.0643 42.9286V42.9319L99.0807 43.0681V43.0715C99.4952 43.0223 99.9093 42.9517 100.314 42.8483C101.329 42.5941 102.289 42.1348 103.07 41.28C103.073 41.2766 103.078 41.2716 103.081 41.2686L102.839 41.0489H102.84Z" fill="#1E1E1E"/>
<path id="Vector_20" d="M99.1677 42.8877C99.1547 42.8713 99.1367 42.8549 99.1102 42.8419C99.0972 42.8351 99.0855 42.8322 99.0742 42.8288C99.0658 42.8271 99.0578 42.8255 99.0511 42.8271C99.0477 42.8255 99.0444 42.8255 99.0414 42.8255V42.417C99.0347 42.417 99.0267 42.417 99.02 42.4187C99.015 42.4187 99.0087 42.4204 99.0037 42.4204C98.8581 42.43 98.7318 42.5006 98.65 42.6074C98.5682 42.7141 98.5371 42.8385 98.5371 42.9486C98.5371 43.0587 98.5682 43.1848 98.65 43.2915C98.7335 43.3983 98.8598 43.4718 99.0104 43.4802C99.02 43.4819 99.0318 43.4819 99.0414 43.4819V43.0734H99.0498V43.0717C99.0595 43.0734 99.0695 43.0717 99.0809 43.0684C99.0905 43.0667 99.1006 43.0616 99.1102 43.057C99.1362 43.044 99.1543 43.0276 99.1677 43.0112C99.1908 42.9818 99.1925 42.957 99.1925 42.949C99.1925 42.941 99.1908 42.9179 99.1677 42.8885V42.8877Z" fill="#1E1E1E"/>
<path id="Vector_21" d="M103.824 41.4901H103.822V41.4884L103.571 41.2783C102.699 42.3184 101.554 42.7626 100.314 42.8479C99.9094 42.8773 99.4932 42.8677 99.0741 42.8265V42.8282L99.0644 42.9282L99.0514 42.8265C99.0481 42.8248 99.0447 42.8248 99.0418 42.8248V43.161L99.0107 43.4791C100.688 43.6401 102.423 43.3593 103.741 42.0587C103.824 41.9784 103.906 41.8914 103.985 41.8011C104.014 41.7683 104.044 41.7339 104.073 41.6994L103.824 41.4893L103.824 41.4901Z" fill="#1E1E1E"/>
<path id="Vector_22" d="M98.7026 36.0899V36.0651L98.6929 35.7617C98.5536 35.7651 98.421 35.8193 98.3245 35.9256C98.2326 36.0307 98.1982 36.1584 98.1982 36.2719C98.1982 36.495 98.3291 36.7278 98.575 36.8329L98.6161 36.851L98.6619 36.8577L98.703 36.5345V36.5312C98.4655 36.4295 98.4655 36.0899 98.703 36.0899H98.7026Z" fill="#1E1E1E"/>
<path id="Vector_23" d="M99.0037 42.4202C98.8581 42.4298 98.7318 42.5004 98.65 42.6072C98.5682 42.7139 98.5371 42.8383 98.5371 42.9484C98.5371 43.0585 98.5682 43.1846 98.65 43.2913C98.7335 43.3981 98.8598 43.4716 99.0104 43.48L99.0414 43.1619V42.7387L99.0037 42.4206V42.4202Z" fill="#1E1E1E"/>
<path id="Vector_24" d="M102.606 40.8159L102.601 40.8205L102.597 40.8273L102.821 41.0307L102.606 40.8159Z" fill="#1E1E1E"/>
<path id="Vector_25" d="M103.139 33.4673L103.137 33.4706L103.136 33.474L103.406 33.6396L103.139 33.4673Z" fill="#1E1E1E"/>
<path id="Vector_26" d="M98.7026 36.0899V36.0651L98.6929 35.7617C98.5536 35.7651 98.421 35.8193 98.3245 35.9256C98.2326 36.0307 98.1982 36.1584 98.1982 36.2719C98.1982 36.495 98.3291 36.7278 98.575 36.8329L98.6161 36.851L98.6619 36.8577L98.703 36.5345V36.5312C98.4655 36.4295 98.4655 36.0899 98.703 36.0899H98.7026Z" fill="#1E1E1E"/>
<path id="Vector_27" d="M99.0037 42.4202C98.8581 42.4298 98.7318 42.5004 98.65 42.6072C98.5682 42.7139 98.5371 42.8383 98.5371 42.9484C98.5371 43.0585 98.5682 43.1846 98.65 43.2913C98.7335 43.3981 98.8598 43.4716 99.0104 43.48L99.0414 43.1619V42.7387L99.0037 42.4206V42.4202Z" fill="#1E1E1E"/>
<path id="Vector_28" d="M102.606 40.8159L102.601 40.8205L102.597 40.8273L102.821 41.0307L102.606 40.8159Z" fill="#1E1E1E"/>
<path id="Vector_29" d="M103.139 33.4673L103.137 33.4706L103.136 33.474L103.406 33.6396L103.139 33.4673Z" fill="#1E1E1E"/>
<path id="Vector_30" d="M104.104 41.3228L103.823 41.4883V41.49H103.821L103.541 41.6556C103.559 41.685 103.575 41.7148 103.592 41.7443C103.646 41.8443 103.697 41.9476 103.741 42.059C103.911 42.4906 104.003 43.0596 104.003 44.1031H104.658C104.658 42.6482 104.486 41.9708 104.104 41.3228H104.104Z" fill="#1E1E1E"/>
<path id="Vector_31" d="M103.137 33.4706L103.136 33.474L103.406 33.6396L103.139 33.4673L103.137 33.4706Z" fill="#1E1E1E"/>
<path id="Vector_32" d="M102.601 40.8205L102.597 40.8273L102.821 41.0307L102.606 40.8159L102.601 40.8205Z" fill="#1E1E1E"/>
<path id="Vector_33" d="M98.65 42.607C98.5682 42.7137 98.5371 42.8381 98.5371 42.9482C98.5371 43.0583 98.5682 43.1844 98.65 43.2911C98.7335 43.3979 98.8598 43.4714 99.0104 43.4798L99.0414 43.1617V42.7385L99.0037 42.4204C98.8581 42.4301 98.7318 42.5007 98.65 42.6074V42.607Z" fill="#1E1E1E"/>
<path id="Vector_34" d="M98.6157 36.8515L98.6614 36.8582L98.7026 36.535V36.5317C98.4651 36.43 98.4651 36.0904 98.7026 36.0904V36.0656L98.6929 35.7622C98.5536 35.7656 98.421 35.8198 98.3245 35.9261C98.2326 36.0312 98.1982 36.1589 98.1982 36.2724C98.1982 36.4955 98.3291 36.7283 98.575 36.8334L98.6161 36.8515H98.6157Z" fill="#1E1E1E"/>
<path id="Vector_35" d="M103.139 33.4673L103.137 33.4706L103.136 33.474L103.406 33.6396L103.139 33.4673Z" fill="#1E1E1E"/>
<path id="Vector_36" d="M102.606 40.8159L102.601 40.8205L102.597 40.8273L102.821 41.0307L102.606 40.8159Z" fill="#1E1E1E"/>
<path id="Vector_37" d="M99.0037 42.4202C98.8581 42.4298 98.7318 42.5004 98.65 42.6072C98.5682 42.7139 98.5371 42.8383 98.5371 42.9484C98.5371 43.0585 98.5682 43.1846 98.65 43.2913C98.7335 43.3981 98.8598 43.4716 99.0104 43.48L99.0414 43.1619V42.7387L99.0037 42.4206V42.4202Z" fill="#1E1E1E"/>
<path id="Vector_38" d="M98.7026 36.0899V36.0651L98.6929 35.7617C98.5536 35.7651 98.421 35.8193 98.3245 35.9256C98.2326 36.0307 98.1982 36.1584 98.1982 36.2719C98.1982 36.495 98.3291 36.7278 98.575 36.8329L98.6161 36.851L98.6619 36.8577L98.703 36.5345V36.5312C98.4655 36.4295 98.4655 36.0899 98.703 36.0899H98.7026Z" fill="#1E1E1E"/>
<path id="Vector_39" d="M103.139 33.4673L103.137 33.4706L103.136 33.474L103.406 33.6396L103.139 33.4673Z" fill="#1E1E1E"/>
<path id="Vector_40" d="M102.606 40.8159L102.601 40.8205L102.597 40.8273L102.821 41.0307L102.606 40.8159Z" fill="#1E1E1E"/>
<path id="Vector_41" d="M99.0037 42.4202C98.8581 42.4298 98.7318 42.5004 98.65 42.6072C98.5682 42.7139 98.5371 42.8383 98.5371 42.9484C98.5371 43.0585 98.5682 43.1846 98.65 43.2913C98.7335 43.3981 98.8598 43.4716 99.0104 43.48L99.0414 43.1619V42.7387L99.0037 42.4206V42.4202Z" fill="#1E1E1E"/>
<path id="Vector_42" d="M98.7026 36.0899V36.0651L98.6929 35.7617C98.5536 35.7651 98.421 35.8193 98.3245 35.9256C98.2326 36.0307 98.1982 36.1584 98.1982 36.2719C98.1982 36.495 98.3291 36.7278 98.575 36.8329L98.6161 36.851L98.6619 36.8577L98.703 36.5345V36.5312C98.4655 36.4295 98.4655 36.0899 98.703 36.0899H98.7026Z" fill="#1E1E1E"/>
<path id="Vector_43" d="M104.002 44.103C104.002 45.0839 103.629 46.3517 102.809 47.3687C101.998 48.376 100.75 49.1404 98.9746 49.1404V49.7964C100.963 49.7964 102.392 48.9303 103.319 47.7805C104.236 46.6421 104.657 45.228 104.657 44.103H104.002Z" fill="#1E1E1E"/>
<path id="Vector_44" d="M98.9744 49.1404H90.0586V49.7964H98.9744V49.1404Z" fill="#1E1E1E"/>
<path id="Vector_45" d="M84.9948 44.103H84.3398C84.3398 47.2031 86.8585 49.7964 90.0585 49.7964V49.1404C87.2235 49.1404 84.9948 46.8438 84.9948 44.103Z" fill="#1E1E1E"/>
<path id="Vector_46" d="M84.9948 30.7937H84.3398V44.1031H84.9948V30.7937Z" fill="#1E1E1E"/>
<path id="Vector_47" d="M84.3398 30.7936H84.9948C84.9948 27.9461 87.127 25.6545 90.1257 25.6545V24.9985C86.7519 24.9985 84.3398 27.5969 84.3398 30.7936Z" fill="#1E1E1E"/>
<path id="Vector_48" d="M68.3102 44.159C67.5747 43.6077 66.8413 42.8517 66.1188 42.0284C66.1155 42.0251 66.1121 42.0234 66.1105 42.02L65.878 42.2251L65.865 42.2364L65.8403 42.2596L65.6191 42.4533C66.1021 43.0059 66.6034 43.5425 67.1178 44.0132C67.3813 44.2578 67.6486 44.4822 67.9188 44.6856C68.7097 45.2743 69.5547 45.6862 70.4341 45.6879H70.4408V45.0319C69.7628 45.0319 69.052 44.7138 68.3102 44.159Z" fill="#1E1E1E"/>
<path id="Vector_49" d="M65.0672 40.7388L64.8575 40.9094L64.8512 40.9144L64.8184 40.9422L64.8134 40.9455V40.9472L64.6019 41.1178L64.5596 41.154L65.2032 41.9444L65.611 42.4433L65.8384 42.2579L65.8648 42.2365L65.8779 42.2252L66.1187 42.0281L65.0672 40.7388Z" fill="#1E1E1E"/>
<path id="Vector_50" d="M64.4464 40.606C64.3449 40.6568 64.24 40.7585 64.214 40.9144C64.1892 41.0602 64.245 41.1867 64.3122 41.2754C64.3155 41.2804 64.3172 41.2838 64.3206 41.2867L64.5761 41.0817L64.5857 41.0749L64.7804 40.919C64.7838 40.919 64.7854 40.9224 64.7888 40.9258L64.8396 40.8896C64.8429 40.8947 64.8463 40.901 64.8492 40.9094L64.8543 40.906L65.046 40.714C64.8824 40.5517 64.6382 40.5089 64.4464 40.6055V40.606Z" fill="#1E1E1E"/>
<path id="Vector_51" d="M64.8515 40.9142C64.8515 40.9142 64.8515 40.9109 64.8499 40.9092L64.8188 40.942L64.8138 40.9453V40.947L64.6191 41.1407L64.583 41.1769C64.5994 41.1949 64.6304 41.2113 64.6699 41.2113C64.6913 41.2113 64.7156 41.2046 64.7403 41.1916C64.7827 41.1718 64.8452 41.1176 64.8616 41.0243C64.8616 41.0176 64.8633 41.013 64.8633 41.0063C64.8666 40.9668 64.8599 40.9357 64.852 40.9142H64.8515Z" fill="#1E1E1E"/>
<path id="Vector_52" d="M67.1177 44.0128L65.8401 42.2592L65.8649 42.2361L65.4718 41.7524L64.8575 40.9111V40.9094L64.8542 40.906L64.8412 40.8879L64.8395 40.8896L64.7887 40.9258C64.7854 40.9224 64.7837 40.919 64.7803 40.919L64.5856 41.0749L64.576 41.0817L64.3125 41.2754C64.3159 41.2804 64.3175 41.2838 64.3209 41.2867L67.5243 45.6845L67.6011 45.7913L67.8646 45.5976H67.8662L68.1297 45.4038L67.1177 44.0128Z" fill="#1E1E1E"/>
<path id="Vector_53" d="M67.8671 45.5974H67.8654L67.5411 45.5613C67.536 45.6025 67.5314 45.6432 67.5247 45.6844C67.3577 46.9048 66.7745 47.7986 65.9442 48.4008C65.0811 49.0257 63.9315 49.3438 62.6787 49.3438V49.9998C64.0364 49.9998 65.3287 49.6552 66.3289 48.932C67.3363 48.2021 68.029 47.0998 68.191 45.6331L67.8667 45.597L67.8671 45.5974Z" fill="#1E1E1E"/>
<path id="Vector_54" d="M57.7174 44.3411H57.0625C57.0625 47.4496 59.8253 50 62.678 50V49.344C60.174 49.344 57.7174 47.0739 57.7174 44.3411Z" fill="#1E1E1E"/>
<path id="Vector_55" d="M57.7174 30.9626H57.0625V44.3409H57.7174V30.9626Z" fill="#1E1E1E"/>
<path id="Vector_56" d="M57.0625 30.9626H57.7174C57.7174 26.3106 63.6656 24.0833 66.692 27.9033C66.692 27.9033 66.6925 27.9044 66.6937 27.9066L66.9492 27.7032L66.9966 27.6671L67.2064 27.4998C63.7886 23.176 57.0625 25.702 57.0625 30.9626Z" fill="#1E1E1E"/>
<path id="Vector_57" d="M70.6864 31.9892L70.4783 31.7236L67.2078 27.5015L66.9967 27.667L66.9493 27.7032L66.6921 27.9032L66.6904 27.9049L70.2165 32.4536L70.4753 32.2535L70.4766 32.2518L70.7338 32.0514L70.6864 31.9892Z" fill="#1E1E1E"/>
<path id="Vector_58" d="M73.8469 27.4983L73.8452 27.5L70.4782 31.7238L70.2688 31.9877L70.2197 32.0486L70.4736 32.252L70.4752 32.2537L70.732 32.4584L74.3579 27.9084L73.8469 27.4983Z" fill="#1E1E1E"/>
<path id="Vector_59" d="M73.8474 27.4981L73.8457 27.4998L74.3601 27.9066C77.3831 24.0816 83.3346 26.3088 83.3346 30.9626H83.9896C83.9896 25.702 77.2652 23.176 73.8474 27.4981Z" fill="#1E1E1E"/>
<path id="Vector_60" d="M65.0679 40.7386L65.0583 40.7255L65.047 40.7142C64.8833 40.552 64.6392 40.5091 64.4474 40.6058C64.3459 40.6566 64.241 40.7583 64.215 40.9142C64.1902 41.0601 64.246 41.1865 64.3131 41.2752L64.5766 41.0815L64.5863 41.0748L64.781 40.9189C64.7843 40.9189 64.786 40.9222 64.7894 40.9256L64.8401 40.8894C64.8435 40.8945 64.8468 40.9008 64.8498 40.9092L64.8187 40.942L64.8515 40.9142L64.8582 40.9092V40.9109L65.4724 41.7522L65.8655 42.2359L65.8786 42.2245L66.111 42.0195C66.1127 42.0228 66.116 42.0245 66.1194 42.0279L65.0679 40.7386Z" fill="#1E1E1E"/>
<path id="Vector_61" d="M70.4414 45.0315V45.3597L70.4494 45.0315H70.4414Z" fill="#1E1E1E"/>
<path id="Vector_62" d="M70.4757 32.2537L70.2168 32.4537L70.4723 32.7832L70.7324 32.4583L70.4757 32.2537Z" fill="#1E1E1E"/>
<path id="Vector_63" d="M74.1025 27.7034L74.3581 27.9084L74.3597 27.9068L74.1025 27.7034Z" fill="#1E1E1E"/>
<path id="Vector_64" d="M76.8197 40.9094C76.7903 40.7817 76.7068 40.6879 76.6183 40.6321C76.435 40.519 76.1828 40.5371 76.0074 40.714L75.9911 40.7304L74.8725 42.0214L74.8691 42.0247L75.0902 42.21L75.1196 42.2361L75.8027 41.4473L76.1958 40.9077L76.1975 40.9094L76.2386 40.9455L76.1992 40.906V40.9044L76.2105 40.888L76.2629 40.9258L76.2646 40.9241H76.2663L76.4761 41.0817L76.7412 41.2754C76.8134 41.1737 76.8512 41.0443 76.8197 40.9098V40.9094Z" fill="#1E1E1E"/>
<path id="Vector_65" d="M65.0679 40.7386L65.0583 40.7255L65.047 40.7142C64.8833 40.552 64.6392 40.5091 64.4474 40.6058C64.3459 40.6566 64.241 40.7583 64.215 40.9142C64.1902 41.0601 64.246 41.1865 64.3131 41.2752L64.5766 41.0815L64.5863 41.0748L64.781 40.9189C64.7843 40.9189 64.786 40.9222 64.7894 40.9256L64.8401 40.8894C64.8435 40.8945 64.8468 40.9008 64.8498 40.9092L64.8187 40.942L64.8515 40.9142L64.8582 40.9092V40.9109L65.4724 41.7522L65.8655 42.2359L65.8786 42.2245L66.111 42.0195C66.1127 42.0228 66.116 42.0245 66.1194 42.0279L65.0679 40.7386Z" fill="#1E1E1E"/>
<path id="Vector_66" d="M70.4414 45.0315V45.3597L70.4494 45.0315H70.4414Z" fill="#1E1E1E"/>
<path id="Vector_67" d="M70.4757 32.2537L70.2168 32.4537L70.4723 32.7832L70.7324 32.4583L70.4757 32.2537Z" fill="#1E1E1E"/>
<path id="Vector_68" d="M74.1025 27.7034L74.3581 27.9084L74.3597 27.9068L74.1025 27.7034Z" fill="#1E1E1E"/>
<path id="Vector_69" d="M76.8197 40.9094C76.7903 40.7817 76.7068 40.6879 76.6183 40.6321C76.435 40.519 76.1828 40.5371 76.0074 40.714L75.9911 40.7304L74.8725 42.0214L74.8691 42.0247L75.0902 42.21L75.1196 42.2361L75.8027 41.4473L76.1958 40.9077L76.1975 40.9094L76.2386 40.9455L76.1992 40.906V40.9044L76.2105 40.888L76.2629 40.9258L76.2646 40.9241H76.2663L76.4761 41.0817L76.7412 41.2754C76.8134 41.1737 76.8512 41.0443 76.8197 40.9098V40.9094Z" fill="#1E1E1E"/>
<path id="Vector_70" d="M83.9889 30.9626H83.334V44.3409H83.9889V30.9626Z" fill="#1E1E1E"/>
<path id="Vector_71" d="M76.6183 40.6323C76.435 40.5193 76.1828 40.5373 76.0074 40.7142L75.9911 40.7306L74.8725 42.0216L74.8691 42.025L75.0902 42.2103L75.1196 42.2363L75.8027 41.4476L76.1958 40.908L76.1975 40.9097L76.2386 40.9458L76.1992 40.9063V40.9046L76.2105 40.8882L76.2629 40.926L76.2646 40.9244H76.2663L76.4761 41.082L76.7412 41.2757C76.8134 41.174 76.8512 41.0445 76.8197 40.9101C76.7903 40.7823 76.7068 40.6886 76.6183 40.6327V40.6323Z" fill="#1E1E1E"/>
<path id="Vector_72" d="M74.3581 27.9084L74.3597 27.9068L74.1025 27.7034L74.3581 27.9084Z" fill="#1E1E1E"/>
<path id="Vector_73" d="M70.2168 32.4537L70.4723 32.7832L70.7324 32.4583L70.4757 32.2537L70.2168 32.4537Z" fill="#1E1E1E"/>
<path id="Vector_74" d="M70.4414 45.3597L70.4494 45.0315H70.4414V45.3597Z" fill="#1E1E1E"/>
<path id="Vector_75" d="M65.0573 40.7255L65.046 40.7142C64.8824 40.552 64.6382 40.5091 64.4464 40.6058C64.3449 40.6566 64.24 40.7583 64.214 40.9142C64.1892 41.0601 64.245 41.1865 64.3122 41.2752L64.5757 41.0815L64.5853 41.0748L64.78 40.9189C64.7833 40.9189 64.785 40.9222 64.7884 40.9256L64.8391 40.8894C64.8425 40.8945 64.8459 40.9008 64.8488 40.9092L64.8178 40.942L64.8505 40.9142L64.8572 40.9092V40.9109L65.4714 41.7522L65.8646 42.2359L65.8776 42.2245L66.11 42.0195C66.1117 42.0228 66.1151 42.0245 66.1184 42.0279L65.067 40.7386L65.0573 40.7255Z" fill="#1E1E1E"/>
<path id="Vector_76" d="M76.8197 40.9094C76.7903 40.7817 76.7068 40.6879 76.6183 40.6321C76.435 40.519 76.1828 40.5371 76.0074 40.714L75.9911 40.7304L74.8725 42.0214L74.8691 42.0247L75.0902 42.21L75.1196 42.2361L75.8027 41.4473L76.1958 40.9077L76.1975 40.9094L76.2386 40.9455L76.1992 40.906V40.9044L76.2105 40.888L76.2629 40.9258L76.2646 40.9241H76.2663L76.4761 41.0817L76.7412 41.2754C76.8134 41.1737 76.8512 41.0443 76.8197 40.9098V40.9094Z" fill="#1E1E1E"/>
<path id="Vector_77" d="M74.1025 27.7034L74.3581 27.9084L74.3597 27.9068L74.1025 27.7034Z" fill="#1E1E1E"/>
<path id="Vector_78" d="M70.4757 32.2537L70.2168 32.4537L70.4723 32.7832L70.7324 32.4583L70.4757 32.2537Z" fill="#1E1E1E"/>
<path id="Vector_79" d="M70.4414 45.0315V45.3597L70.4494 45.0315H70.4414Z" fill="#1E1E1E"/>
<path id="Vector_80" d="M65.0679 40.7386L65.0583 40.7255L65.047 40.7142C64.8833 40.552 64.6392 40.5091 64.4474 40.6058C64.3459 40.6566 64.241 40.7583 64.215 40.9142C64.1902 41.0601 64.246 41.1865 64.3131 41.2752L64.5766 41.0815L64.5863 41.0748L64.781 40.9189C64.7843 40.9189 64.786 40.9222 64.7894 40.9256L64.8401 40.8894C64.8435 40.8945 64.8468 40.9008 64.8498 40.9092L64.8187 40.942L64.8515 40.9142L64.8582 40.9092V40.9109L65.4724 41.7522L65.8655 42.2359L65.8786 42.2245L66.111 42.0195C66.1127 42.0228 66.116 42.0245 66.1194 42.0279L65.0679 40.7386Z" fill="#1E1E1E"/>
<path id="Vector_81" d="M76.8197 40.9094C76.7903 40.7817 76.7068 40.6879 76.6183 40.6321C76.435 40.519 76.1828 40.5371 76.0074 40.714L75.9911 40.7304L74.8725 42.0214L74.8691 42.0247L75.0902 42.21L75.1196 42.2361L75.8027 41.4473L76.1958 40.9077L76.1975 40.9094L76.2386 40.9455L76.1992 40.906V40.9044L76.2105 40.888L76.2629 40.9258L76.2646 40.9241H76.2663L76.4761 41.0817L76.7412 41.2754C76.8134 41.1737 76.8512 41.0443 76.8197 40.9098V40.9094Z" fill="#1E1E1E"/>
<path id="Vector_82" d="M74.1025 27.7034L74.3581 27.9084L74.3597 27.9068L74.1025 27.7034Z" fill="#1E1E1E"/>
<path id="Vector_83" d="M70.4757 32.2537L70.2168 32.4537L70.4723 32.7832L70.7324 32.4583L70.4757 32.2537Z" fill="#1E1E1E"/>
<path id="Vector_84" d="M70.4414 45.0315V45.3597L70.4494 45.0315H70.4414Z" fill="#1E1E1E"/>
<path id="Vector_85" d="M65.0679 40.7386L65.0583 40.7255L65.047 40.7142C64.8833 40.552 64.6392 40.5091 64.4474 40.6058C64.3459 40.6566 64.241 40.7583 64.215 40.9142C64.1902 41.0601 64.246 41.1865 64.3131 41.2752L64.5766 41.0815L64.5863 41.0748L64.781 40.9189C64.7843 40.9189 64.786 40.9222 64.7894 40.9256L64.8401 40.8894C64.8435 40.8945 64.8468 40.9008 64.8498 40.9092L64.8187 40.942L64.8515 40.9142L64.8582 40.9092V40.9109L65.4724 41.7522L65.8655 42.2359L65.8786 42.2245L66.111 42.0195C66.1127 42.0228 66.116 42.0245 66.1194 42.0279L65.0679 40.7386Z" fill="#1E1E1E"/>
<path id="Vector_86" d="M83.3346 44.3411C83.3346 47.0739 80.878 49.344 78.374 49.344V50C81.2271 50 83.9895 47.4491 83.9895 44.3411H83.3346Z" fill="#1E1E1E"/>
<path id="Vector_87" d="M75.0968 48.4008C74.2715 47.8003 73.6933 46.9048 73.5297 45.6844C73.523 45.6432 73.5184 45.6025 73.5133 45.5613L73.1873 45.5974L72.8613 45.6336C73.025 47.0985 73.708 48.2008 74.712 48.9324C75.7077 49.6557 77.0016 50.0003 78.374 50.0003V49.3443C77.1031 49.3443 75.9552 49.0261 75.0972 48.4013L75.0968 48.4008Z" fill="#1E1E1E"/>
<path id="Vector_88" d="M76.4759 41.0815L76.2665 40.9239H76.2648L76.2632 40.9256L76.2107 40.8882L76.1994 40.9046H76.1977L76.196 40.9075L75.8029 41.4475L75.1886 42.2922L75.187 42.2939L74.0357 43.8765L72.9238 45.4037L73.1873 45.5974L73.4529 45.7907L73.5297 45.6844L76.7381 41.2786L76.7415 41.2752L76.4759 41.0815Z" fill="#1E1E1E"/>
<path id="Vector_89" d="M76.8201 40.9094C76.7907 40.7817 76.7072 40.6879 76.6187 40.6321C76.4353 40.519 76.1832 40.5371 76.0078 40.714L76.1979 40.9044L76.1996 40.906V40.9044L76.2109 40.888L76.2633 40.9258L76.265 40.9241H76.2667L76.4765 41.0817L76.7387 41.2784L76.7421 41.275C76.8142 41.1733 76.852 41.0439 76.8205 40.9094H76.8201Z" fill="#1E1E1E"/>
<path id="Vector_90" d="M76.4336 41.1392L76.4449 41.1245L76.2452 40.9506L76.2385 40.9455L76.199 40.906C76.199 40.906 76.199 40.9094 76.1974 40.9094C76.1844 40.9371 76.1743 40.9732 76.176 41.0161C76.176 41.0291 76.1776 41.0422 76.181 41.0586C76.1974 41.1275 76.2402 41.1699 76.2741 41.1913C76.3086 41.2111 76.3446 41.2191 76.3774 41.2161C76.4151 41.2145 76.4478 41.1998 76.4705 41.1766L76.4327 41.1388L76.4336 41.1392Z" fill="#1E1E1E"/>
<path id="Vector_91" d="M76.4442 41.1245L76.2445 40.9505L76.2378 40.9455L76.1971 40.9093L76.1954 40.9076L75.9906 40.7307L74.8721 42.0217L75.0898 42.2104L75.1192 42.2364L75.1863 42.294L75.3667 42.4512L75.3697 42.4465L76.0641 41.646L76.4702 41.177L76.4853 41.1602L76.4442 41.1245Z" fill="#1E1E1E"/>
<path id="Vector_92" d="M75.8024 41.4475L75.1193 42.2363L75.0899 42.2102L74.8688 42.0249C74.1648 42.8633 73.4146 43.6307 72.6514 44.182C71.8866 44.7346 71.1431 45.0464 70.4487 45.0317L70.442 45.3599H70.4403V45.3961L70.4336 45.6881H70.4403C71.3378 45.7062 72.2172 45.3045 73.0362 44.7136C73.3752 44.469 73.7092 44.1854 74.0352 43.8769C74.4971 43.4407 74.9439 42.9549 75.3664 42.4515L75.3698 42.4464L75.1881 42.2922L75.8024 41.4475Z" fill="#1E1E1E"/>
<path id="Vector_93" d="M56.1147 37.3809C56.1147 44.021 50.7052 49.3438 44.0693 49.3438V49.9998C51.0606 49.9998 56.7696 44.39 56.7696 37.3809H56.1147Z" fill="#1E1E1E"/>
<path id="Vector_94" d="M32.0915 37.3809H31.4365C31.4365 44.3883 37.18 49.9998 44.0697 49.9998V49.3438C37.5353 49.3438 32.0915 44.021 32.0915 37.3809Z" fill="#1E1E1E"/>
<path id="Vector_95" d="M31.4365 37.381H32.0915C32.0915 30.7706 37.5383 25.3491 44.0697 25.3491V24.6931C37.1766 24.6931 31.4365 30.4079 31.4365 37.381Z" fill="#1E1E1E"/>
<path id="Vector_96" d="M44.0693 24.6931V25.3491C50.7018 25.3491 56.1147 30.7702 56.1147 37.381H56.7696C56.7696 30.4079 51.0639 24.6931 44.0693 24.6931Z" fill="#1E1E1E"/>
<path id="Vector_97" d="M20.2965 42.9482H19.6416V44.1031H20.2965V42.9482Z" fill="#1E1E1E"/>
<path id="Vector_98" d="M19.2241 41.8737V42.5297C19.4502 42.5297 19.6415 42.7234 19.6415 42.9478H20.2965C20.2965 42.3591 19.8119 41.8733 19.2236 41.8733L19.2241 41.8737Z" fill="#1E1E1E"/>
<path id="Vector_99" d="M18.1508 42.9484H18.8058C18.8058 42.7236 18.9975 42.5303 19.2232 42.5303V41.8743C18.6354 41.8743 18.1504 42.3596 18.1504 42.9488L18.1508 42.9484Z" fill="#1E1E1E"/>
<path id="Vector_100" d="M18.8063 42.9482H18.1514V44.1031H18.8063V42.9482Z" fill="#1E1E1E"/>
<path id="Vector_101" d="M18.1507 44.103C18.1507 46.977 15.9249 49.1732 13.0869 49.1732V49.8292C16.2836 49.8292 18.8056 47.341 18.8056 44.103H18.1507Z" fill="#1E1E1E"/>
<path id="Vector_102" d="M8.02506 44.103H7.37012C7.37012 47.3443 9.96094 49.8292 13.0871 49.8292V49.1732C10.3146 49.1732 8.02506 46.9737 8.02506 44.103Z" fill="#1E1E1E"/>
<path id="Vector_103" d="M8.02506 30.7249H7.37012V44.1032H8.02506V30.7249Z" fill="#1E1E1E"/>
<path id="Vector_104" d="M7.37012 30.7249H8.02506C8.02506 27.8904 10.3146 25.6892 13.0871 25.6892V25.0332C9.96262 25.0332 7.37012 27.5168 7.37012 30.7249Z" fill="#1E1E1E"/>
<path id="Vector_105" d="M13.0869 25.0327V25.6887C15.9265 25.6887 18.1507 27.8866 18.1507 30.7244H18.8056C18.8056 27.5193 16.2819 25.0327 13.0869 25.0327Z" fill="#1E1E1E"/>
<path id="Vector_106" d="M18.8063 30.7249H18.1514V31.9486H18.8063V30.7249Z" fill="#1E1E1E"/>
<path id="Vector_107" d="M18.8063 31.9485H18.1514C18.1514 32.5129 18.646 32.9886 19.2242 32.9886V32.3326C18.9884 32.3326 18.8067 32.1309 18.8067 31.9489L18.8063 31.9485Z" fill="#1E1E1E"/>
<path id="Vector_108" d="M19.6411 31.9484C19.6411 32.1304 19.4594 32.3321 19.2236 32.3321V32.9881C19.8018 32.9881 20.2965 32.5124 20.2965 31.948H19.6415L19.6411 31.9484Z" fill="#1E1E1E"/>
<path id="Vector_109" d="M20.2965 30.7249H19.6416V31.9486H20.2965V30.7249Z" fill="#1E1E1E"/>
<path id="Vector_110" d="M19.6416 30.7249H20.2965C20.2965 27.9576 22.5861 25.6892 25.4274 25.6892V25.0332C22.2354 25.0332 19.6416 27.5857 19.6416 30.7249Z" fill="#1E1E1E"/>
<path id="Vector_111" d="M25.4277 25.0327V25.6887C28.1986 25.6887 30.4898 27.9555 30.4898 30.7244H31.1447C31.1447 27.5865 28.5556 25.0327 25.4277 25.0327Z" fill="#1E1E1E"/>
<path id="Vector_112" d="M31.1442 30.7249H30.4893V44.1032H31.1442V30.7249Z" fill="#1E1E1E"/>
<path id="Vector_113" d="M30.4898 44.103C30.4898 46.9081 28.1969 49.1732 25.4277 49.1732V49.8292C28.5573 49.8292 31.1447 47.2737 31.1447 44.103H30.4898Z" fill="#1E1E1E"/>
<path id="Vector_114" d="M20.2965 44.103H19.6416C19.6416 47.2771 22.2341 49.8292 25.4274 49.8292V49.1732C22.5878 49.1732 20.2965 46.9064 20.2965 44.103Z" fill="#1E1E1E"/>
<path id="Vector_115" d="M103.139 33.4673L103.137 33.4706L103.136 33.474L103.406 33.6396L103.139 33.4673Z" fill="#1E1E1E"/>
<path id="Vector_116" d="M98.7031 36.0901V36.4183H98.7145V36.4166L98.7031 36.0901Z" fill="#1E1E1E"/>
<path id="Vector_117" d="M98.5742 36.8334L98.6153 36.8515L98.6611 36.8578L98.7022 36.5346V36.5312L98.5742 36.8334Z" fill="#1E1E1E"/>
<path id="Vector_118" d="M103.85 34.3582L103.518 34.7091L103.755 34.9351L104.052 34.7994L103.85 34.3582Z" fill="#1E1E1E"/>
<path id="Vector_119" d="M102.606 40.8159L102.601 40.8205L102.597 40.8273L102.821 41.0307L102.606 40.8159Z" fill="#1E1E1E"/>
<path id="Vector_120" d="M99.0648 42.9319V42.9285L99.0517 42.8268V42.8251L99.042 42.7449V43.0731H99.0619L99.0813 43.0714V43.068L99.0648 42.9319Z" fill="#1E1E1E"/>
<path id="Vector_121" d="M99.0585 42.8252H99.042V43.1534L99.05 43.0731V43.0715L99.0648 42.9319V42.9286L99.075 42.8286V42.8269L99.0585 42.8252Z" fill="#1E1E1E"/>
<path id="Vector_122" d="M103.87 40.9224L103.571 41.2787L103.822 41.4884L104.104 41.3229L103.87 40.9224Z" fill="#1E1E1E"/>
<path id="Vector_123" d="M65.8387 42.2578L65.6113 42.4431L65.6147 42.4481L65.6193 42.4528L65.8404 42.2594L65.8652 42.2363L65.8387 42.2578Z" fill="#1E1E1E"/>
<path id="Vector_124" d="M65.0581 40.7257L65.0467 40.7144L64.855 40.906L64.8504 40.9093L64.8193 40.9421L64.8521 40.9144L64.8584 40.9093L65.0681 40.7387L65.0581 40.7257Z" fill="#1E1E1E"/>
<path id="Vector_125" d="M64.8364 40.8815C64.8347 40.8781 64.8331 40.8765 64.8331 40.8765L64.7806 40.9189L64.5859 41.0748L64.789 40.9256L64.8398 40.8895L64.8415 40.8878L64.8364 40.8811V40.8815Z" fill="#1E1E1E"/>
<path id="Vector_126" d="M68.1297 45.4038L67.8662 45.5975L68.1901 45.6337L68.2052 45.5072L68.1297 45.4038Z" fill="#1E1E1E"/>
<path id="Vector_127" d="M67.2064 27.5L66.9492 27.7034L66.9966 27.6673L67.2077 27.5017L67.2064 27.5Z" fill="#1E1E1E"/>
<path id="Vector_128" d="M70.4757 32.2537L70.2168 32.4537L70.4723 32.7832L70.7324 32.4583L70.4757 32.2537Z" fill="#1E1E1E"/>
<path id="Vector_129" d="M74.1025 27.7034L74.3581 27.9084L74.3597 27.9068L74.1025 27.7034Z" fill="#1E1E1E"/>
<path id="Vector_130" d="M72.9232 45.4038L72.8477 45.5072L72.8611 45.6337L73.1867 45.5975L72.9232 45.4038Z" fill="#1E1E1E"/>
<path id="Vector_131" d="M76.2667 40.924H76.2651L76.2143 40.8845C76.2143 40.8845 76.2126 40.8862 76.2109 40.8879L76.2634 40.9257L76.4761 41.0816L76.2663 40.924H76.2667Z" fill="#1E1E1E"/>
<path id="Vector_132" d="M76.1976 40.9047L76.0076 40.7144L75.9912 40.7307L76.196 40.9077L76.1976 40.9093L76.2383 40.9455L76.1976 40.9047Z" fill="#1E1E1E"/>
<path id="Vector_133" d="M70.4414 45.0315V45.3597L70.4494 45.0315H70.4414Z" fill="#1E1E1E"/>
<path id="Vector_134" d="M74.8725 42.0217L74.8691 42.0251L75.0902 42.2104L74.8725 42.0217Z" fill="#1E1E1E"/>
</g>
</g>
</g>
<defs>
<clipPath id="clip0_3987_575">
<rect width="112" height="50" fill="white"/>
</clipPath>
</defs>
</svg>
