<svg width="205" height="93" viewBox="0 0 205 93" fill="none" xmlns="http://www.w3.org/2000/svg">
<g id="strayhome 1" clip-path="url(#clip0_3863_597)">
<path id="Vector" fill-rule="evenodd" clip-rule="evenodd" d="M35.9522 18.454C38.8529 16.9481 40.3338 14.1872 40.3338 10.9238C40.3338 5.40194 35.8292 1.00934 30.3371 1.00934H16.9463C-0.888011 0.820615 -3.665 21.2778 8.42972 27.7409C10.0344 28.5563 11.8238 29.2468 13.5514 29.3726C14.0448 29.5605 13.9218 30.188 13.4277 30.188C10.527 30.188 7.31846 29.3726 4.91189 27.7409C2.19677 29.7492 1.02441 32.2585 1.02441 35.6477C1.02441 40.1032 5.59087 45.688 10.8363 45.688H24.3508C43.9127 45.688 45.3317 21.0898 28.8554 17.2618C28.362 17.136 28.5468 16.4464 29.0402 16.4464C31.5087 16.6343 33.9152 17.2618 35.9514 18.4547L35.9522 18.454ZM81.1263 11.1746C81.1263 5.6528 76.6836 1.07147 71.1907 1.07147H51.7526C46.2605 1.07147 42.0026 5.65202 42.0026 11.1746C42.0026 16.6972 46.2605 21.0891 51.7526 21.0891V35.7099C51.7526 41.2946 56.1953 45.8752 61.5026 45.8752C66.8099 45.8752 71.4382 41.2946 71.4382 35.7099L71.3763 21.0891C76.8684 21.0891 81.1263 16.5085 81.1263 11.1746ZM82.0199 35.5848C82.0199 41.1696 86.5245 45.7501 91.8318 45.7501C97.1391 45.7501 101.397 41.6713 101.706 36.4003L107.013 42.8005C110.345 47.381 117.01 46.6906 120.527 43.1142C124.045 39.5371 124.539 34.2661 121.762 30.2502C120.157 32.1327 118.244 33.4507 116.208 34.3919C115.837 34.5799 115.529 33.9524 115.837 33.7644C120.527 30.4389 123.365 25.0421 123.365 18.8928C123.365 9.04122 115.529 1.07147 105.84 1.07147H92.0166C86.5245 1.07147 82.0199 5.46408 82.0199 10.9859V35.584V35.5848ZM125.971 31.6939C123.687 36.5253 125.724 42.4867 130.599 44.8088C135.474 47.131 141.275 45.0597 143.619 40.1025L145.471 36.0236L143.804 28.9959C143.742 28.5563 144.175 28.4942 144.297 28.7451L149.605 40.1025C151.888 45.0597 157.689 47.1302 162.564 44.8088C167.439 42.4867 169.475 36.5261 167.192 31.6939L155.406 6.46826C151.827 -1.18697 141.152 -1.06193 137.634 6.53116L125.971 31.6939ZM200.932 3.83316C197.23 -0.119882 191.121 -0.119882 187.356 3.83316L182.605 8.85328L177.73 3.83316C174.027 -0.119882 168.042 -0.119882 164.339 3.83316C160.636 7.66116 160.636 13.9984 164.339 17.9523L172.793 26.7375V35.5227C172.793 41.0445 177.236 45.5 182.605 45.5C187.974 45.5 192.479 41.0445 192.479 35.5227V26.7375L200.932 17.9523C204.635 13.9992 204.635 7.66116 200.932 3.83316Z" fill="#F7F7F7"/>
<g id="Group">
<path id="Vector_2" d="M35.952 18.454L35.6541 18.979L35.9344 19.1436L36.2223 18.9937L35.9512 18.454H35.952ZM16.9461 1.00933L16.94 1.61587H16.9461V1.00933ZM8.42953 27.7409L8.15228 28.2775L8.15763 28.2806L8.16298 28.2837L8.42953 27.7417V27.7409ZM13.552 29.3726L13.7613 28.8049L13.6803 28.7746L13.594 28.7684L13.552 29.3733V29.3726ZM4.91246 27.7409L5.24317 27.2361L4.89795 27.0015L4.5619 27.25L4.91246 27.7401V27.7409ZM28.856 17.2618L28.7116 17.8497L28.7177 17.8513L28.7238 17.8528L28.8567 17.2618H28.856ZM29.0408 16.4456L29.0859 15.8414L29.0637 15.8398H29.0416V16.4464L29.0408 16.4456ZM51.7524 21.0891H52.3489V20.4825H51.7524V21.0891ZM71.438 35.7099H72.0345V35.7075L71.438 35.7099ZM71.3761 21.0891V20.4825H70.7774L70.7804 21.0914L71.3769 21.0883L71.3761 21.0891ZM101.705 36.4003L102.161 36.0096L101.199 34.8486L101.11 36.3638L101.705 36.3995V36.4003ZM107.012 42.8005L107.492 42.4401L107.48 42.4246L107.468 42.4098L107.012 42.8005ZM121.761 30.2509L122.249 29.9022L121.81 29.2677L121.311 29.8541L121.761 30.2509H121.761ZM116.207 34.3927L115.96 33.8405L115.95 33.8452L115.94 33.8498L116.207 34.3919V34.3927ZM115.836 33.7652L116.143 34.2847L116.161 34.2739L116.178 34.2622L115.836 33.7644V33.7652ZM125.97 31.6939L126.507 31.9564L126.509 31.9549V31.9525L125.97 31.6939ZM143.62 40.1025L144.157 40.365L144.159 40.3611L144.161 40.3564L143.62 40.1025ZM145.471 36.0236L146.013 36.2776L146.1 36.0865L146.051 35.8815L145.471 36.0236ZM143.805 28.9959L143.214 29.0813L143.218 29.1101L143.225 29.138L143.805 28.9959ZM144.298 28.7451L144.837 28.4849L144.833 28.4794L144.83 28.474L144.297 28.7451H144.298ZM149.605 40.1025L150.145 39.8454L150.144 39.8423L149.605 40.1025ZM167.193 31.6939L166.654 31.9541L166.656 31.9564L167.194 31.6939H167.193ZM187.356 3.83315L186.927 3.41144L186.926 3.41299L187.355 3.83315H187.356ZM200.932 3.83315L200.501 4.25097L200.504 4.25486L200.507 4.25874L200.932 3.83315ZM182.605 8.85327L182.181 9.27886L182.61 9.72154L183.034 9.27343L182.605 8.85327ZM177.73 3.83315L177.298 4.25097L177.302 4.25486L177.306 4.25874L177.73 3.83315ZM164.339 3.83315L164.764 4.25874L164.767 4.25486L164.77 4.25097L164.339 3.83315ZM164.339 17.9515L163.907 18.3693L163.91 18.3724L163.913 18.3755L164.34 17.9515H164.339ZM172.793 26.7367H173.389V26.4889L173.219 26.3119L172.793 26.7359V26.7367ZM192.478 26.7367L192.052 26.3127L191.883 26.4897V26.7375H192.479L192.478 26.7367ZM200.932 17.9515L201.358 18.3755L201.361 18.3724L201.365 18.3693L200.933 17.9515H200.932ZM39.7371 10.9238C39.7371 13.9821 38.3616 16.5217 35.6808 17.9142L36.2231 18.9937C39.3422 17.3737 40.9293 14.3914 40.9293 10.9238H39.7371ZM30.3369 1.61587C35.5166 1.61587 39.7379 5.75375 39.7379 10.9238H40.9301C40.9301 5.05012 36.1414 0.40278 30.3369 0.40278V1.6151V1.61587ZM16.9461 1.61587H30.3369V0.40278H16.9461V1.6151V1.61587ZM8.70677 27.2042C2.92672 24.1148 0.6897 17.6804 2.04383 12.0242C3.38726 6.41078 8.28823 1.52423 16.9392 1.61587L16.9514 0.403557C7.76888 0.305701 2.36536 5.55338 0.88522 11.7377C-0.584232 17.8785 1.83838 24.9038 8.15228 28.2783L8.70677 27.205V27.2042ZM13.594 28.7676C11.981 28.6503 10.2732 28.0003 8.69607 27.1988L8.16298 28.2837C9.79511 29.1132 11.6671 29.844 13.5092 29.9776L13.594 28.7684V28.7676ZM13.4283 30.7946C13.9575 30.7946 14.3661 30.4334 14.4479 29.955C14.5311 29.4681 14.2585 28.9944 13.7613 28.8049L13.3427 29.9403C13.3534 29.9442 13.3252 29.9348 13.2984 29.8906C13.274 29.8479 13.2648 29.7966 13.2732 29.7469C13.2816 29.698 13.3068 29.6529 13.345 29.6203C13.3863 29.5854 13.4229 29.5815 13.4283 29.5815V30.7938V30.7946ZM4.58176 28.2449C7.10442 29.955 10.4336 30.7938 13.4283 30.7938V29.5815C10.6222 29.5815 7.53365 28.7893 5.24317 27.2361L4.58176 28.2449ZM1.62071 35.6469C1.62071 34.0253 1.901 32.6461 2.48451 31.4446C3.06725 30.2439 3.97 29.187 5.26226 28.2309L4.56114 27.25C3.13828 28.3016 2.09729 29.5038 1.41526 30.9072C0.733997 32.3098 0.427734 33.8801 0.427734 35.6462H1.61995L1.62071 35.6469ZM10.8369 45.0814C8.42341 45.0814 6.11842 43.7922 4.39923 41.9244C2.67621 40.052 1.62147 37.6833 1.62147 35.6477H0.428498C0.428498 38.0677 1.65737 40.7191 3.52855 42.7531C5.40432 44.7917 8.00488 46.2945 10.8369 46.2945V45.0822V45.0814ZM24.3506 45.0814H10.8361V46.2938H24.3506V45.0814ZM28.7231 17.8528C36.6393 19.6919 40.2351 26.4928 39.5255 32.8418C39.1712 36.0174 37.7384 39.0711 35.2295 41.3303C32.7244 43.5864 29.1141 45.0814 24.3514 45.0814V46.2938C29.3692 46.2938 33.272 44.7133 36.0199 42.2382C38.7641 39.7662 40.3244 36.4306 40.7101 32.9785C41.4815 26.0711 37.5482 18.659 28.9881 16.6708L28.7231 17.8528ZM29.0408 15.8398C28.4917 15.8398 28.1044 16.2312 27.9998 16.6599C27.9464 16.8774 27.9563 17.136 28.0838 17.3729C28.2175 17.6206 28.4458 17.7829 28.7109 17.8497L29.0003 16.6739C29.0187 16.6786 29.0851 16.7073 29.1302 16.7904C29.1691 16.8626 29.1638 16.9248 29.1569 16.9543C29.1439 17.0063 29.0973 17.0529 29.0416 17.0529V15.8406L29.0408 15.8398ZM36.2498 17.9282C34.1174 16.6801 31.6192 16.034 29.0859 15.8414L28.9965 17.0506C31.3993 17.2339 33.7142 17.8435 35.6549 18.9797L36.2498 17.929V17.9282ZM71.1905 1.678C76.3512 1.678 80.5297 5.98518 80.5297 11.1746H81.7219C81.7219 5.32039 77.0141 0.465687 71.1905 0.465687V1.678ZM51.7524 1.678H71.1905V0.465687H51.7524V1.678ZM42.5981 11.1746C42.5981 5.96965 46.6062 1.678 51.7516 1.678V0.465687C45.9135 0.465687 41.4051 5.33515 41.4051 11.1746H42.5973H42.5981ZM51.7524 20.4833C46.5994 20.4833 42.5989 16.1839 42.5989 11.1754H41.4066C41.4066 16.8339 45.9219 21.6964 51.7531 21.6964V20.4841L51.7524 20.4833ZM52.3489 35.7099V21.0891H51.1567V35.7099H52.3489ZM61.5024 45.2694C56.5365 45.2694 52.3489 40.9723 52.3489 35.7099H51.1567C51.1567 41.6169 55.8545 46.4817 61.5032 46.4817V45.2694H61.5024ZM70.8415 35.7099C70.8415 40.9622 66.6012 45.2694 61.5024 45.2694V46.4817C67.2649 46.4817 72.0337 41.627 72.0337 35.7099H70.8415ZM70.7796 21.0922L70.8415 35.713L72.0337 35.7075L71.9719 21.0867L70.7796 21.0922ZM80.5297 11.1746C80.5297 16.1839 76.5291 20.4825 71.3761 20.4825V21.6948C77.2074 21.6948 81.7226 16.8331 81.7226 11.1738H80.5304L80.5297 11.1746ZM91.8316 45.1436C86.8611 45.1436 82.6162 40.8418 82.6162 35.584H81.424C81.424 41.4965 86.189 46.3559 91.8324 46.3559V45.1436H91.8316ZM101.11 36.3646C100.821 41.3132 96.8876 45.1443 91.8316 45.1443V46.3567C97.5139 46.3567 101.973 42.0301 102.3 36.4368L101.11 36.3646H101.11ZM107.468 42.4098L102.161 36.0096L101.249 36.7909L106.556 43.1911L107.468 42.4098ZM120.105 42.6863C118.46 44.3592 116.063 45.3665 113.689 45.4107C111.326 45.455 109.024 44.5479 107.491 42.4409L106.532 43.1616C108.332 45.6352 111.028 46.6735 113.711 46.6238C116.381 46.5741 119.075 45.448 120.948 43.5437L120.105 42.6863ZM121.273 30.5996C123.878 34.3655 123.426 39.3103 120.106 42.6863L120.949 43.5437C124.663 39.7662 125.199 34.1683 122.249 29.903L121.273 30.6004V30.5996ZM116.453 34.9441C118.554 33.9733 120.541 32.6072 122.211 30.6478L121.31 29.8533C119.771 31.659 117.933 32.928 115.96 33.8397L116.453 34.9441ZM115.53 33.2448C115.269 33.404 115.145 33.6619 115.12 33.9042C115.096 34.1302 115.154 34.3438 115.245 34.5123C115.336 34.68 115.486 34.8525 115.703 34.9519C115.937 35.0606 116.215 35.066 116.474 34.9348L115.941 33.8498C115.971 33.8343 116.013 33.8211 116.066 33.8211C116.117 33.8211 116.162 33.8327 116.197 33.8491C116.262 33.8786 116.285 33.9166 116.291 33.9283C116.297 33.9391 116.312 33.9725 116.306 34.0339C116.298 34.1116 116.251 34.2203 116.144 34.2855L115.531 33.2456L115.53 33.2448ZM122.769 18.8927C122.769 24.8456 120.025 30.0552 115.496 33.2674L116.178 34.2622C121.028 30.8225 123.962 25.2394 123.962 18.8927H122.77H122.769ZM105.84 1.678C115.198 1.678 122.769 9.37594 122.769 18.8927H123.961C123.961 8.70649 115.857 0.465687 105.84 0.465687V1.678ZM92.0164 1.678H105.84V0.465687H92.0164V1.678ZM82.6162 10.9867C82.6162 5.81666 86.8367 1.67878 92.0172 1.67878V0.465687C86.2127 0.465687 81.424 5.11225 81.424 10.9867H82.6162ZM82.6162 35.5848V10.9867H81.424V35.5848H82.6162ZM130.852 44.2598C126.278 42.0813 124.367 36.4857 126.508 31.9564L125.433 31.4314C123.007 36.5657 125.17 42.8929 130.346 45.3579L130.852 44.2598ZM143.082 39.84C140.88 44.4959 135.432 46.4421 130.852 44.2598L130.346 45.3579C135.515 47.8198 141.669 45.6243 144.157 40.3657L143.082 39.84ZM144.93 35.7697L143.078 39.8485L144.161 40.3564L146.013 36.2776L144.93 35.7697ZM143.225 29.138L144.891 36.1657L146.051 35.8815L144.384 28.8538L143.225 29.138ZM144.831 28.474C144.627 28.0585 144.169 27.9086 143.793 28.0368C143.595 28.1036 143.421 28.2457 143.314 28.4492C143.207 28.6503 143.185 28.8724 143.214 29.0821L144.395 28.9105C144.394 28.9004 144.402 28.9509 144.364 29.0239C144.323 29.1 144.253 29.159 144.171 29.187C144.026 29.2359 143.846 29.18 143.765 29.0161L144.831 28.474ZM150.144 39.8423L144.837 28.4849L143.76 29.0052L149.067 40.3626L150.144 39.8423ZM162.311 44.2598C157.728 46.4421 152.286 44.4935 150.145 39.8454L149.065 40.3595C151.492 45.6266 157.65 47.8183 162.817 45.3579L162.312 44.2598H162.311ZM166.655 31.9564C168.795 36.4857 166.885 42.0813 162.312 44.2598L162.817 45.3579C167.994 42.8929 170.156 36.5665 167.73 31.4314L166.655 31.9564ZM154.868 6.72842L166.654 31.9541L167.731 31.4337L155.944 6.20808L154.868 6.72842ZM138.173 6.78977C141.48 -0.34822 151.508 -0.456171 154.867 6.72919L155.944 6.20808C152.145 -1.91779 140.821 -1.77489 137.094 6.27331L138.173 6.78977ZM126.51 31.9525L138.173 6.78977L137.094 6.27254L125.431 31.4353L126.51 31.9525ZM187.784 4.25486C191.316 0.54568 197.035 0.551116 200.501 4.25097L201.364 3.41454C197.424 -0.791675 190.924 -0.786238 186.927 3.41066L187.784 4.25408V4.25486ZM183.034 9.27343L187.785 4.2533L186.926 3.41221L182.175 8.43234L183.034 9.27343ZM177.305 4.25874L182.18 9.27886L183.029 8.4269L178.153 3.40678L177.305 4.25874ZM164.77 4.25097C168.238 0.548786 173.831 0.548786 177.298 4.25097L178.161 3.41454C174.224 -0.789345 167.844 -0.789345 163.907 3.41454L164.77 4.25097H164.77ZM164.77 17.5336C161.284 13.8105 161.293 7.84599 164.763 4.25796L163.913 3.40755C159.979 7.47476 159.988 14.1864 163.907 18.3693L164.77 17.5329L164.77 17.5336ZM173.219 26.3127L164.765 17.5274L163.913 18.3755L172.367 27.1607L173.219 26.3127ZM173.389 35.5219V26.7367H172.197V35.5219H173.389ZM182.605 44.8927C177.562 44.8927 173.389 40.7067 173.389 35.5219H172.197C172.197 41.3816 176.909 46.1058 182.605 46.1058V44.8935L182.605 44.8927ZM191.882 35.5219C191.882 40.7044 187.711 44.8927 182.605 44.8927V46.105C188.359 46.105 193.074 41.3831 193.074 35.5211H191.882V35.5219ZM191.882 26.7367V35.5219H193.074V26.7367H191.882ZM200.506 17.5274L192.052 26.3127L192.905 27.1607L201.358 18.3755L200.506 17.5274ZM200.507 4.25796C203.977 7.84599 203.987 13.8105 200.5 17.5336L201.363 18.3701C205.281 14.1864 205.291 7.47553 201.356 3.40833L200.506 4.25874L200.507 4.25796Z" fill="#6726C0"/>
</g>
<path id="Vector_3" fill-rule="evenodd" clip-rule="evenodd" d="M189.449 77.6554C189.363 77.455 189.264 77.2671 189.157 77.0791H189.151C189.013 77.243 188.877 77.4007 188.734 77.549C186.486 79.9107 183.469 80.4474 180.452 80.153C180.02 80.153 180.02 79.3982 180.452 79.3982C183.046 79.0859 185.511 78.3311 187.366 76.2637V76.2606C189.933 73.6472 190.624 69.1824 189.28 65.5718C189.205 65.3684 189.122 65.1657 189.032 64.9684C188.88 65.1261 188.731 65.2775 188.576 65.4227C186.161 67.6874 183.028 68.3265 179.838 67.9149H179.835C179.403 67.727 179.403 67.0995 179.835 67.0995C183.538 66.9752 186.439 65.8444 188.415 62.5826C192.425 56.2438 188.105 47.2069 180.33 47.2069H164.223C158.422 47.2069 154.287 51.7238 154.287 57.3108V81.9074C154.287 87.3034 158.607 91.8234 164.101 91.8234H180.331C187.182 91.8234 190.079 85.7999 190.079 81.9074C190.079 79.7368 189.871 78.5881 189.45 77.6546L189.449 77.6554Z" fill="#F7F7F7"/>
<path id="Vector_4" fill-rule="evenodd" clip-rule="evenodd" d="M135.319 51.373L129.1 59.2938L128.718 59.7792L128.715 59.7823L128.712 59.7792L128.34 59.2915L122.297 51.3738C116.436 43.8436 104.896 48.2362 104.896 57.3973V82.1213C104.896 87.5173 109.648 91.9736 114.522 91.9736C119.396 91.9736 123.409 89.5272 123.963 84.4434L119.119 77.6921L118.147 76.3369L118.055 76.2065L118.025 76.1637L117.978 76.097C117.751 75.8057 118.1 75.624 118.35 75.7972C118.357 75.7972 118.36 75.8034 118.366 75.8096C118.381 75.8189 118.396 75.8306 118.411 75.8461V75.8492L118.5 75.9587L119.609 77.338L120.325 78.2319C122.978 81.3058 125.816 84.0038 128.654 84.0038H128.657C131.558 84.0644 134.581 81.3695 137.172 78.2319L138.415 76.7742L139.095 75.9766L139.208 75.8461C139.223 75.8306 139.237 75.8189 139.253 75.8096L139.256 75.8065H139.259C139.5 75.6279 139.813 75.8609 139.641 76.0977L139.584 76.1762L139.564 76.2034L139.462 76.3455L138.892 77.14L133.654 84.4426C134.212 89.5264 138.284 91.9728 143.096 91.9728C147.908 91.9728 152.722 87.5165 152.722 82.1205V57.3965C152.722 48.2354 141.185 43.8428 135.321 51.373H135.319Z" fill="#F7F7F7"/>
<path id="Vector_5" fill-rule="evenodd" clip-rule="evenodd" d="M80.648 46.4165C68.428 46.4165 58.248 56.7084 58.248 69.2579C58.248 81.8075 68.4288 91.972 80.648 91.972C92.8672 91.972 103.17 81.868 103.17 69.2579C103.17 56.6478 93.0521 46.4165 80.648 46.4165ZM82.8033 61.1313C83.1042 59.8219 83.7305 58.7331 84.4904 58.0302C85.2534 57.3243 86.121 57.0237 86.923 57.2147C87.7249 57.4027 88.3749 58.0605 88.7537 59.0336C89.1294 60.0067 89.2249 61.2649 88.9263 62.5743C88.6254 63.8868 87.996 64.9748 87.2392 65.6784C86.4762 66.3821 85.6086 66.6818 84.8066 66.4939C84.0047 66.3028 83.3547 65.645 82.9759 64.6719C82.6002 63.7019 82.5047 62.4438 82.8033 61.1313ZM74.0324 59.0328C74.4113 58.0597 75.0612 57.4019 75.8631 57.214C76.6651 57.0229 77.5327 57.3235 78.2926 58.0294C79.0526 58.7331 79.6819 59.8211 79.9797 61.1305C80.2807 62.443 80.1852 63.7011 79.8071 64.6712C79.4314 65.6443 78.7814 66.3021 77.9795 66.4931C77.1745 66.6811 76.3069 66.3813 75.5469 65.6777C74.787 64.974 74.1577 63.886 73.8598 62.5735C73.562 61.2641 73.6544 60.0059 74.0324 59.0328ZM67.4321 68.743C66.9731 67.5882 66.8868 66.4178 67.1098 65.4687C67.3305 64.5166 67.8522 63.8106 68.5793 63.5101C69.3094 63.2103 70.1656 63.3524 70.9759 63.8798C71.784 64.404 72.5233 65.3049 72.9823 66.4628C73.4413 67.6177 73.5245 68.7881 73.3046 69.7371C73.0808 70.6892 72.5622 71.3952 71.8321 71.6958C71.105 71.9955 70.2488 71.8534 69.4385 71.3292C68.6304 70.8019 67.8911 69.9017 67.4321 68.7438V68.743ZM86.312 81.9201L81.1185 80.9438L76.62 81.9201C71.3555 82.4412 70.5024 79.9645 70.7323 78.6613C72.6699 72.147 78.0032 69.2121 80.4273 68.5636C85.6888 69.0847 88.8522 75.5113 89.7763 78.6613C89.7763 81.7896 87.466 82.1383 86.312 81.9201ZM94.1167 69.3946C93.6577 70.5495 92.9184 71.4496 92.1104 71.9777C91.2993 72.505 90.4439 72.6448 89.7168 72.3442C88.9866 72.0445 88.468 71.3408 88.2443 70.3887C88.0235 69.4365 88.1068 68.2669 88.5666 67.1121C89.0256 65.9573 89.7649 65.0571 90.5729 64.529C91.384 64.0017 92.2394 63.8588 92.9696 64.1594C93.6967 64.4591 94.2183 65.1659 94.439 66.118C94.6628 67.0671 94.5765 68.2367 94.1167 69.3946Z" fill="#F7F7F7"/>
<path id="Vector_6" d="M77.4337 67.036C76.7028 67.036 75.9566 66.7098 75.283 66.0862C74.4368 65.3041 73.8059 64.1462 73.5058 62.8259C73.2056 61.5072 73.2713 60.1854 73.6921 59.1051C74.1129 58.024 74.8377 57.3126 75.7328 57.1022C76.6272 56.8894 77.5857 57.2047 78.4304 57.9891C79.2759 58.7711 79.9067 59.9275 80.2069 61.2455C80.5086 62.5626 80.4429 63.8837 80.0205 64.9663C79.6035 66.0466 78.8803 66.7588 77.9836 66.9723C77.8018 67.015 77.6178 67.036 77.4329 67.036H77.4337ZM76.2835 57.6442C76.143 57.6442 76.004 57.6605 75.868 57.6932C75.1684 57.857 74.5933 58.438 74.2466 59.3287C73.8708 60.2956 73.8135 61.4893 74.087 62.69C74.3596 63.8907 74.9271 64.9376 75.6847 65.6381C76.3805 66.2819 77.1496 66.546 77.85 66.3829C78.5488 66.2167 79.1231 65.635 79.4668 64.7457V64.7442C79.8449 63.7765 79.9014 62.5828 79.6272 61.3845C79.3538 60.1854 78.7871 59.1393 78.0294 58.4387C77.4696 57.9184 76.8632 57.645 76.2835 57.645V57.6442Z" fill="#6726C0"/>
<path id="Vector_7" d="M70.9704 72.338C70.4006 72.338 69.8003 72.1462 69.2153 71.7679C68.3087 71.1762 67.5557 70.2077 67.0929 69.0396C66.627 67.8685 66.5078 66.6406 66.7576 65.5821C67.0035 64.5197 67.5893 63.7493 68.405 63.413C69.2199 63.079 70.1677 63.2188 71.0743 63.8083C71.9785 64.3954 72.7324 65.3631 73.196 66.5327C73.6596 67.6984 73.7787 68.927 73.532 69.9902C73.2823 71.0542 72.6957 71.8246 71.8808 72.1594C71.5921 72.279 71.2851 72.3372 70.9696 72.3372L70.9704 72.338ZM69.3161 63.8424C69.0763 63.8424 68.8449 63.8867 68.6288 63.9753C67.9971 64.2354 67.5381 64.856 67.3373 65.7219V65.7234C67.1165 66.6601 67.2257 67.7574 67.6458 68.8129C68.0628 69.8652 68.7349 70.7335 69.5368 71.2569C70.2769 71.7353 71.0307 71.8573 71.6578 71.5979C72.2894 71.3385 72.7484 70.7179 72.9523 69.8505C73.1708 68.9092 73.0615 67.811 72.6438 66.7602C72.226 65.7064 71.5547 64.8396 70.7535 64.3193C70.2678 64.0032 69.7759 63.8424 69.3161 63.8424Z" fill="#6726C0"/>
<path id="Vector_8" d="M75.2138 82.4769C72.8531 82.4769 71.6647 81.7655 71.0712 81.1116C70.4916 80.4732 70.2311 79.6057 70.3747 78.7918L70.3831 78.7576C72.3391 72.1812 77.7166 69.1422 80.2874 68.4549L80.3386 68.4409L80.392 68.4464C85.752 68.9776 89.0193 75.4244 89.9977 78.7584L90.0099 78.8454C90.0099 80.147 89.6326 81.1256 88.8887 81.7547C88.0631 82.4521 86.9541 82.546 86.1927 82.4024L81.058 81.437L76.584 82.4055C76.0883 82.4544 75.6323 82.4769 75.213 82.4769H75.2138ZM70.9582 78.9153C70.9162 79.1708 70.8513 79.9762 71.5089 80.7008C72.1153 81.3687 73.4755 82.1026 76.5099 81.8044L81.0504 80.8196L86.3019 81.8067C86.932 81.9263 87.8416 81.8517 88.5076 81.2887C89.1003 80.7878 89.405 79.9808 89.4134 78.8897C88.4625 75.6892 85.3778 69.5911 80.3867 69.0552C77.9106 69.7394 72.8294 72.6518 70.9582 78.9153Z" fill="#6726C0"/>
<path id="Vector_9" d="M90.4545 72.9881C90.1383 72.9881 89.8305 72.9291 89.5403 72.8087C88.7253 72.474 88.1388 71.7043 87.8898 70.6427C87.6424 69.5764 87.7615 68.3477 88.2251 67.182C88.6887 66.0163 89.4417 65.0486 90.3468 64.4576C91.2541 63.8674 92.2019 63.7276 93.0161 64.0623C93.8333 64.3994 94.4183 65.1698 94.6643 66.2322C94.9132 67.2884 94.7941 68.5178 94.3282 69.6921C93.8646 70.8578 93.1116 71.8255 92.2065 72.4165C91.6238 72.7955 91.0242 72.9881 90.4537 72.9881H90.4545ZM92.1049 64.491C91.6459 64.491 91.1533 64.6518 90.6676 64.9679C89.8664 65.4913 89.1951 66.358 88.7773 67.4088C88.3595 68.4596 88.2503 69.5577 88.4687 70.5021C88.6719 71.3665 89.1317 71.9863 89.7633 72.2464C90.3934 72.5058 91.1472 72.3847 91.885 71.9047C92.6861 71.3813 93.3582 70.5145 93.7752 69.4638C94.1945 68.406 94.3045 67.3071 94.0838 66.3712C93.8829 65.5045 93.4247 64.884 92.7923 64.623C92.5762 64.5345 92.3455 64.4902 92.1057 64.4902L92.1049 64.491Z" fill="#6726C0"/>
<path id="Vector_10" d="M85.2244 67.036C85.0404 67.036 84.8571 67.0151 84.6761 66.9731C83.7802 66.7596 83.0554 66.0474 82.6353 64.9671C82.216 63.8845 82.1504 62.5627 82.449 61.2463C82.753 59.9245 83.3838 58.7681 84.2262 57.9891C85.074 57.2047 86.0325 56.8902 86.9276 57.103C87.822 57.3127 88.546 58.0233 88.9668 59.1051C89.3861 60.1908 89.4518 61.5119 89.1532 62.8259C88.8507 64.1454 88.2199 65.3026 87.3767 66.0854H87.3759C86.7 66.7099 85.9531 67.036 85.2244 67.036ZM86.3769 57.6451C85.7972 57.6451 85.1901 57.9177 84.6279 58.438C83.8741 59.1354 83.3067 60.1815 83.0302 61.3837C82.7583 62.5813 82.8148 63.775 83.1906 64.745C83.5366 65.6342 84.1124 66.2159 84.8112 66.3829C85.5078 66.5452 86.2769 66.2819 86.9757 65.6381C87.7303 64.9368 88.2978 63.8899 88.5735 62.69C88.8454 61.4948 88.7889 60.3011 88.4131 59.3288C88.0671 58.4388 87.4912 57.8586 86.7932 57.6948C86.6572 57.6621 86.5182 57.6458 86.3769 57.6458V57.6451Z" fill="#6726C0"/>
<path id="Vector_11" fill-rule="evenodd" clip-rule="evenodd" d="M46.7139 47.0441C41.2226 47.0441 36.7776 51.4973 36.7776 56.957V59.2185C36.7776 59.9066 36.1605 60.5341 35.4211 60.5341C34.6818 60.5341 34.0647 59.9066 34.0647 59.2185V56.957C34.0647 51.373 29.745 47.0441 24.2506 47.0441C18.7562 47.0441 14.4395 51.373 14.4395 56.957V81.6809C14.4395 87.3286 18.8814 91.6575 24.2506 91.6575C29.6197 91.6575 34.0647 87.3286 34.0647 81.6809V79.5467C34.0647 78.795 34.6818 78.1674 35.4211 78.1674C36.1605 78.1674 36.7776 78.795 36.7776 79.5467V81.6809C36.7776 87.2043 41.2226 91.6575 46.7139 91.6575C52.2053 91.6575 56.525 87.2043 56.525 81.6809V56.957C56.525 51.4973 52.0831 47.0441 46.7139 47.0441Z" fill="#F7F7F7"/>
<g id="Group_2">
<g id="Group_3">
<path id="Vector_12" d="M180.593 46.3738H164.486V47.5861H180.593V46.3738Z" fill="#6726C0"/>
<path id="Vector_13" d="M180.594 46.3738V47.5861C187.859 47.5861 191.952 56.0591 188.175 62.0244L188.66 62.3428L188.678 62.3552L189.179 62.683C189.179 62.683 189.185 62.6737 189.185 62.6705C193.419 55.962 188.872 46.3738 180.594 46.3738Z" fill="#6726C0"/>
<path id="Vector_14" d="M188.678 62.3553L188.66 62.3429L188.168 62.0369C187.238 63.5738 186.102 64.5896 184.776 65.2443C183.446 65.899 181.89 66.2019 180.099 66.2656H180.081L180.099 66.8263V67.4779H180.111C180.111 67.4779 180.117 67.4779 180.12 67.4748V67.4779H180.126C180.147 67.4779 180.168 67.4748 180.189 67.4748C181.13 67.4414 182.031 67.3412 182.886 67.1564C183.736 66.9716 184.541 66.7075 185.295 66.3347C186.836 65.5798 188.136 64.4009 189.18 62.6822C189.183 62.6791 189.186 62.6729 189.186 62.6698L188.679 62.3545L188.678 62.3553Z" fill="#6726C0"/>
<path id="Vector_15" d="M180.334 67.1299L180.196 67.4545C180.232 67.439 180.268 67.4149 180.301 67.3761C180.364 67.3062 180.373 67.2394 180.373 67.2091C180.373 67.1578 180.346 67.1361 180.334 67.1307V67.1299Z" fill="#6726C0"/>
<path id="Vector_16" d="M180.128 67.4756H180.119C180.119 67.4756 180.113 67.4787 180.11 67.4787H180.098V66.2664H180.08C179.827 66.2726 179.585 66.3728 179.41 66.5692C179.242 66.7634 179.18 66.9995 179.18 67.2092C179.18 67.6216 179.418 68.0518 179.866 68.246L180.098 67.6946V67.6884H180.101L180.187 67.4763L180.196 67.4554C180.173 67.4678 180.149 67.4732 180.128 67.4763L180.128 67.4756Z" fill="#6726C0"/>
<path id="Vector_17" d="M189.295 64.741V64.7379L188.862 64.3193C187.208 66.0869 185.13 66.9599 182.885 67.1571C182.003 67.2332 181.094 67.2053 180.176 67.0872L180.128 67.4756L180.125 67.4787H180.119V67.4756C180.119 67.4756 180.113 67.4787 180.11 67.4787H180.098V66.8721C179.665 66.8721 179.665 67.4996 180.098 67.6876H180.101L180.098 67.6938L180.023 68.291C183.263 68.7096 186.518 68.0875 189.068 65.7965C189.229 65.6544 189.387 65.5021 189.542 65.3445C189.605 65.2839 189.664 65.2202 189.724 65.1565L189.295 64.741Z" fill="#6726C0"/>
<path id="Vector_18" d="M189.835 64.4871L189.296 64.7387L188.753 64.9903C188.783 65.0571 188.813 65.127 188.84 65.1961C188.926 65.3934 189.001 65.593 189.07 65.7965C190.229 69.167 189.535 73.2389 187.206 75.606L188.05 76.4642C188.056 76.458 188.065 76.4487 188.071 76.4432C190.968 73.4758 191.588 68.3795 189.836 64.4871H189.835Z" fill="#6726C0"/>
<path id="Vector_19" d="M187.629 76.0364V76.0333L187.613 76.0208L187.596 76.003L187.187 75.6271C185.482 77.5337 183.196 78.2552 180.676 78.5674C180.667 78.5674 180.656 78.5705 180.646 78.5705L180.715 79.1584V79.3192C180.721 79.3192 180.727 79.3192 180.733 79.3223L180.756 79.5102V79.5164L180.786 79.7681V79.7743C181.541 79.6834 182.295 79.5529 183.031 79.3619C184.879 78.892 186.626 78.0432 188.048 76.4635C188.054 76.4573 188.063 76.448 188.069 76.4425L187.627 76.0364H187.629Z" fill="#6726C0"/>
<path id="Vector_20" d="M180.945 79.4349C180.921 79.4046 180.888 79.3743 180.84 79.3502C180.816 79.3378 180.795 79.3324 180.774 79.3262C180.759 79.3231 180.745 79.3199 180.732 79.3231C180.726 79.3199 180.72 79.3199 180.715 79.3199V78.5651C180.703 78.5651 180.688 78.5651 180.676 78.5682C180.667 78.5682 180.655 78.5713 180.646 78.5713C180.381 78.5891 180.151 78.7196 180.002 78.9169C179.853 79.1141 179.797 79.344 179.797 79.5475C179.797 79.751 179.853 79.984 180.002 80.1812C180.154 80.3785 180.384 80.5144 180.658 80.5299C180.676 80.533 180.697 80.533 180.715 80.533V79.7782H180.73V79.775C180.748 79.7782 180.766 79.7751 180.787 79.7688C180.804 79.7657 180.823 79.7564 180.84 79.7479C180.888 79.7238 180.92 79.6935 180.945 79.6632C180.987 79.6089 180.99 79.563 180.99 79.5483C180.99 79.5335 180.987 79.4908 180.945 79.4364V79.4349Z" fill="#6726C0"/>
<path id="Vector_21" d="M189.42 76.8517H189.417V76.8486L188.961 76.4603C187.373 78.3825 185.288 79.2034 183.031 79.361C182.295 79.4154 181.537 79.3975 180.775 79.3214V79.3245L180.757 79.5094L180.733 79.3214C180.727 79.3183 180.721 79.3183 180.716 79.3183V79.9396L180.659 80.5275C183.712 80.825 186.872 80.3062 189.269 77.9025C189.421 77.7542 189.57 77.5934 189.713 77.4265C189.767 77.3659 189.821 77.3022 189.875 77.2385L189.422 76.8502L189.42 76.8517Z" fill="#6726C0"/>
<path id="Vector_22" d="M180.099 66.872V66.8262L180.081 66.2655C179.828 66.2717 179.586 66.3719 179.411 66.5684C179.243 66.7625 179.181 66.9986 179.181 67.2083C179.181 67.6207 179.419 68.051 179.867 68.2451L179.941 68.2785L180.025 68.291L180.099 67.6937V67.6875C179.667 67.4996 179.667 66.872 180.099 66.872H180.099Z" fill="#6726C0"/>
<path id="Vector_23" d="M180.647 78.5704C180.382 78.5883 180.152 78.7188 180.003 78.916C179.854 79.1133 179.798 79.3432 179.798 79.5467C179.798 79.7501 179.854 79.9831 180.003 80.1804C180.155 80.3777 180.385 80.5136 180.659 80.5291L180.716 79.9412V79.1591L180.647 78.5712V78.5704Z" fill="#6726C0"/>
<path id="Vector_24" d="M187.205 75.6061L187.196 75.6146L187.188 75.627L187.596 76.0029L187.205 75.6061Z" fill="#6726C0"/>
<path id="Vector_25" d="M188.175 62.0251L188.172 62.0314L188.169 62.0376L188.661 62.3436L188.175 62.0251Z" fill="#6726C0"/>
<path id="Vector_26" d="M180.099 66.872V66.8262L180.081 66.2655C179.828 66.2717 179.586 66.3719 179.411 66.5684C179.243 66.7625 179.181 66.9986 179.181 67.2083C179.181 67.6207 179.419 68.051 179.867 68.2451L179.941 68.2785L180.025 68.291L180.099 67.6937V67.6875C179.667 67.4996 179.667 66.872 180.099 66.872H180.099Z" fill="#6726C0"/>
<path id="Vector_27" d="M180.647 78.5704C180.382 78.5883 180.152 78.7188 180.003 78.916C179.854 79.1133 179.798 79.3432 179.798 79.5467C179.798 79.7501 179.854 79.9831 180.003 80.1804C180.155 80.3777 180.385 80.5136 180.659 80.5291L180.716 79.9412V79.1591L180.647 78.5712V78.5704Z" fill="#6726C0"/>
<path id="Vector_28" d="M187.205 75.6061L187.196 75.6146L187.188 75.627L187.596 76.0029L187.205 75.6061Z" fill="#6726C0"/>
<path id="Vector_29" d="M188.175 62.0251L188.172 62.0314L188.169 62.0376L188.661 62.3436L188.175 62.0251Z" fill="#6726C0"/>
<path id="Vector_30" d="M189.93 76.5427L189.418 76.8487V76.8518H189.415L188.905 77.1578C188.938 77.2122 188.968 77.2673 188.998 77.3217C189.096 77.5065 189.189 77.6976 189.269 77.9034C189.579 78.701 189.746 79.7525 189.746 81.6809H190.938C190.938 78.9922 190.625 77.7403 189.931 76.5427H189.93Z" fill="#6726C0"/>
<path id="Vector_31" d="M188.172 62.0314L188.169 62.0376L188.661 62.3436L188.175 62.0251L188.172 62.0314Z" fill="#6726C0"/>
<path id="Vector_32" d="M187.196 75.6146L187.188 75.627L187.596 76.0029L187.205 75.6061L187.196 75.6146Z" fill="#6726C0"/>
<path id="Vector_33" d="M180.003 78.9161C179.854 79.1134 179.798 79.3433 179.798 79.5467C179.798 79.7502 179.854 79.9832 180.003 80.1805C180.155 80.3777 180.385 80.5136 180.659 80.5292L180.716 79.9413V79.1592L180.647 78.5713C180.382 78.5892 180.152 78.7196 180.003 78.9169V78.9161Z" fill="#6726C0"/>
<path id="Vector_34" d="M179.941 68.2794L180.024 68.2918L180.099 67.6946V67.6884C179.666 67.5004 179.666 66.8729 180.099 66.8729V66.8271L180.081 66.2664C179.828 66.2726 179.586 66.3728 179.411 66.5692C179.243 66.7634 179.181 66.9995 179.181 67.2092C179.181 67.6216 179.419 68.0518 179.867 68.246L179.941 68.2794H179.941Z" fill="#6726C0"/>
<path id="Vector_35" d="M188.175 62.0251L188.172 62.0314L188.169 62.0376L188.661 62.3436L188.175 62.0251Z" fill="#6726C0"/>
<path id="Vector_36" d="M187.205 75.6061L187.196 75.6146L187.188 75.627L187.596 76.0029L187.205 75.6061Z" fill="#6726C0"/>
<path id="Vector_37" d="M180.647 78.5704C180.382 78.5883 180.152 78.7188 180.003 78.916C179.854 79.1133 179.798 79.3432 179.798 79.5467C179.798 79.7501 179.854 79.9831 180.003 80.1804C180.155 80.3777 180.385 80.5136 180.659 80.5291L180.716 79.9412V79.1591L180.647 78.5712V78.5704Z" fill="#6726C0"/>
<path id="Vector_38" d="M180.099 66.872V66.8262L180.081 66.2655C179.828 66.2717 179.586 66.3719 179.411 66.5684C179.243 66.7625 179.181 66.9986 179.181 67.2083C179.181 67.6207 179.419 68.051 179.867 68.2451L179.941 68.2785L180.025 68.291L180.099 67.6937V67.6875C179.667 67.4996 179.667 66.872 180.099 66.872H180.099Z" fill="#6726C0"/>
<path id="Vector_39" d="M188.175 62.0251L188.172 62.0314L188.169 62.0376L188.661 62.3436L188.175 62.0251Z" fill="#6726C0"/>
<path id="Vector_40" d="M187.205 75.6061L187.196 75.6146L187.188 75.627L187.596 76.0029L187.205 75.6061Z" fill="#6726C0"/>
<path id="Vector_41" d="M180.647 78.5704C180.382 78.5883 180.152 78.7188 180.003 78.916C179.854 79.1133 179.798 79.3432 179.798 79.5467C179.798 79.7501 179.854 79.9831 180.003 80.1804C180.155 80.3777 180.385 80.5136 180.659 80.5291L180.716 79.9412V79.1591L180.647 78.5712V78.5704Z" fill="#6726C0"/>
<path id="Vector_42" d="M180.099 66.872V66.8262L180.081 66.2655C179.828 66.2717 179.586 66.3719 179.411 66.5684C179.243 66.7625 179.181 66.9986 179.181 67.2083C179.181 67.6207 179.419 68.051 179.867 68.2451L179.941 68.2785L180.025 68.291L180.099 67.6937V67.6875C179.667 67.4996 179.667 66.872 180.099 66.872H180.099Z" fill="#6726C0"/>
<path id="Vector_43" d="M189.746 81.6809C189.746 83.4936 189.066 85.8366 187.573 87.7161C186.097 89.5777 183.826 90.9904 180.594 90.9904V92.2027C184.213 92.2027 186.815 90.602 188.502 88.4772C190.172 86.3733 190.938 83.7599 190.938 81.6809H189.746Z" fill="#6726C0"/>
<path id="Vector_44" d="M180.594 90.9902H164.364V92.2025H180.594V90.9902Z" fill="#6726C0"/>
<path id="Vector_45" d="M155.146 81.6809H153.954C153.954 87.4101 158.539 92.2027 164.364 92.2027V90.9904C159.203 90.9904 155.146 86.7461 155.146 81.6809Z" fill="#6726C0"/>
<path id="Vector_46" d="M155.146 57.0842H153.954V81.6808H155.146V57.0842Z" fill="#6726C0"/>
<path id="Vector_47" d="M153.954 57.0842H155.146C155.146 51.8218 159.028 47.5868 164.486 47.5868V46.3745C158.345 46.3745 153.954 51.1764 153.954 57.0842Z" fill="#6726C0"/>
<path id="Vector_48" d="M124.775 81.7841C123.436 80.7652 122.101 79.368 120.786 77.8466C120.779 77.8404 120.773 77.8373 120.77 77.8311L120.347 78.21L120.324 78.231L120.278 78.2737L119.876 78.6318C120.755 79.653 121.668 80.6448 122.604 81.5146C123.084 81.9666 123.57 82.3813 124.062 82.7572C125.502 83.8453 127.04 84.6064 128.641 84.6095H128.653V83.3971C127.419 83.3971 126.125 82.8092 124.775 81.7841Z" fill="#6726C0"/>
<path id="Vector_49" d="M118.872 75.4631L118.491 75.7784L118.479 75.7878L118.419 75.839L118.41 75.8452V75.8483L118.025 76.1637L117.948 76.2304L119.12 77.6913L119.862 78.6131L120.276 78.2706L120.324 78.231L120.348 78.2101L120.786 77.8458L118.872 75.4631Z" fill="#6726C0"/>
<path id="Vector_50" d="M117.742 75.2178C117.557 75.3117 117.366 75.4997 117.319 75.7878C117.273 76.0573 117.375 76.2911 117.497 76.4549C117.503 76.4642 117.506 76.4705 117.513 76.4759L117.978 76.0969L117.995 76.0845L118.35 75.7963C118.356 75.7963 118.359 75.8026 118.365 75.8088L118.457 75.742C118.463 75.7513 118.469 75.7629 118.475 75.7785L118.484 75.7723L118.833 75.4173C118.535 75.1176 118.091 75.0384 117.742 75.217V75.2178Z" fill="#6726C0"/>
<path id="Vector_51" d="M118.479 75.7878C118.479 75.7878 118.479 75.7815 118.476 75.7784L118.419 75.839L118.41 75.8452V75.8483L118.056 76.2064L117.99 76.2732C118.02 76.3065 118.077 76.3368 118.148 76.3368C118.187 76.3368 118.232 76.3244 118.277 76.3003C118.354 76.2638 118.468 76.1636 118.497 75.9912C118.497 75.9788 118.5 75.9703 118.5 75.9578C118.507 75.8848 118.494 75.8274 118.48 75.7878H118.479Z" fill="#6726C0"/>
<path id="Vector_52" d="M122.604 81.5139L120.279 78.273L120.324 78.2303L119.608 77.3364L118.49 75.7816V75.7785L118.484 75.7723L118.46 75.7389L118.457 75.742L118.365 75.8088C118.359 75.8026 118.356 75.7964 118.35 75.7964L117.995 76.0845L117.978 76.0969L117.498 76.4549C117.504 76.4643 117.507 76.4705 117.513 76.4759L123.345 84.6033L123.484 84.8006L123.964 84.4426H123.967L124.447 84.0845L122.604 81.5139Z" fill="#6726C0"/>
<path id="Vector_53" d="M123.967 84.4425H123.964L123.374 84.3757C123.364 84.4518 123.356 84.5272 123.344 84.6033C123.04 86.8586 121.978 88.5105 120.467 89.6234C118.896 90.7783 116.803 91.3662 114.522 91.3662V92.5785C116.994 92.5785 119.346 91.9416 121.167 90.6051C123.001 89.2561 124.262 87.219 124.557 84.5085L123.966 84.4417L123.967 84.4425Z" fill="#6726C0"/>
<path id="Vector_54" d="M105.493 82.1205H104.301C104.301 87.8652 109.33 92.5786 114.523 92.5786V91.3662C109.965 91.3662 105.493 87.1709 105.493 82.1205Z" fill="#6726C0"/>
<path id="Vector_55" d="M105.493 57.3965H104.301V82.1205H105.493V57.3965Z" fill="#6726C0"/>
<path id="Vector_56" d="M104.301 57.3965H105.493C105.493 48.7992 116.321 44.6831 121.83 51.7426C121.83 51.7426 121.831 51.7447 121.833 51.7488L122.298 51.3729L122.384 51.3061L122.766 50.9971C116.544 43.0063 104.301 47.6746 104.301 57.3965Z" fill="#6726C0"/>
<path id="Vector_57" d="M129.1 59.2937L128.721 58.8029L122.768 51.0001L122.384 51.3061L122.297 51.3729L121.829 51.7426L121.826 51.7457L128.245 60.1519L128.716 59.7822L128.718 59.7791L129.186 59.4087L129.1 59.2937Z" fill="#6726C0"/>
<path id="Vector_58" d="M134.854 50.9939L134.851 50.997L128.721 58.8029L128.34 59.2906L128.251 59.4032L128.713 59.7791L128.716 59.7822L129.184 60.1604L135.784 51.7519L134.854 50.9939Z" fill="#6726C0"/>
<path id="Vector_59" d="M134.854 50.9939L134.851 50.997L135.787 51.7488C141.29 44.6799 152.124 48.7961 152.124 57.3965H153.316C153.316 47.6746 141.075 43.0063 134.854 50.9939Z" fill="#6726C0"/>
<path id="Vector_60" d="M118.872 75.4631L118.855 75.439L118.834 75.4181C118.536 75.1183 118.092 75.0391 117.743 75.2177C117.558 75.3117 117.367 75.4996 117.319 75.7878C117.274 76.0572 117.376 76.291 117.498 76.4549L117.978 76.0969L117.995 76.0844L118.35 75.7963C118.356 75.7963 118.359 75.8025 118.365 75.8087L118.457 75.7419C118.464 75.7513 118.47 75.7629 118.475 75.7784L118.419 75.839L118.478 75.7878L118.49 75.7784V75.7815L119.608 77.3364L120.324 78.2303L120.348 78.2093L120.771 77.8303C120.774 77.8365 120.78 77.8396 120.786 77.8458L118.872 75.4631Z" fill="#6726C0"/>
<path id="Vector_61" d="M128.653 83.3965V84.003L128.668 83.3965H128.653Z" fill="#6726C0"/>
<path id="Vector_62" d="M128.716 59.7822L128.245 60.1519L128.71 60.7608L129.184 60.1604L128.716 59.7822Z" fill="#6726C0"/>
<path id="Vector_63" d="M135.318 51.3729L135.783 51.7519L135.787 51.7488L135.318 51.3729Z" fill="#6726C0"/>
<path id="Vector_64" d="M140.265 75.7785C140.211 75.5424 140.059 75.3692 139.898 75.2659C139.564 75.057 139.105 75.0904 138.786 75.4173L138.756 75.4476L136.72 77.8334L136.714 77.8396L137.116 78.1821L137.17 78.2303L138.413 76.7725L139.129 75.7754L139.132 75.7785L139.207 75.8453L139.135 75.7722V75.7691L139.156 75.7388L139.251 75.8087L139.254 75.8056H139.257L139.639 76.0969L140.122 76.4549C140.253 76.267 140.322 76.0278 140.265 75.7792V75.7785Z" fill="#6726C0"/>
<path id="Vector_65" d="M118.872 75.4631L118.855 75.439L118.834 75.4181C118.536 75.1183 118.092 75.0391 117.743 75.2177C117.558 75.3117 117.367 75.4996 117.319 75.7878C117.274 76.0572 117.376 76.291 117.498 76.4549L117.978 76.0969L117.995 76.0844L118.35 75.7963C118.356 75.7963 118.359 75.8025 118.365 75.8087L118.457 75.7419C118.464 75.7513 118.47 75.7629 118.475 75.7784L118.419 75.839L118.478 75.7878L118.49 75.7784V75.7815L119.608 77.3364L120.324 78.2303L120.348 78.2093L120.771 77.8303C120.774 77.8365 120.78 77.8396 120.786 77.8458L118.872 75.4631Z" fill="#6726C0"/>
<path id="Vector_66" d="M128.653 83.3965V84.003L128.668 83.3965H128.653Z" fill="#6726C0"/>
<path id="Vector_67" d="M128.716 59.7822L128.245 60.1519L128.71 60.7608L129.184 60.1604L128.716 59.7822Z" fill="#6726C0"/>
<path id="Vector_68" d="M135.318 51.3729L135.783 51.7519L135.787 51.7488L135.318 51.3729Z" fill="#6726C0"/>
<path id="Vector_69" d="M140.265 75.7785C140.211 75.5424 140.059 75.3692 139.898 75.2659C139.564 75.057 139.105 75.0904 138.786 75.4173L138.756 75.4476L136.72 77.8334L136.714 77.8396L137.116 78.1821L137.17 78.2303L138.413 76.7725L139.129 75.7754L139.132 75.7785L139.207 75.8453L139.135 75.7722V75.7691L139.156 75.7388L139.251 75.8087L139.254 75.8056H139.257L139.639 76.0969L140.122 76.4549C140.253 76.267 140.322 76.0278 140.265 75.7792V75.7785Z" fill="#6726C0"/>
<path id="Vector_70" d="M153.315 57.3965H152.123V82.1205H153.315V57.3965Z" fill="#6726C0"/>
<path id="Vector_71" d="M139.898 75.2667C139.564 75.0578 139.105 75.0912 138.786 75.4182L138.756 75.4485L136.72 77.8343L136.714 77.8405L137.116 78.183L137.17 78.2311L138.413 76.7734L139.129 75.7762L139.132 75.7793L139.207 75.8461L139.135 75.7731V75.77L139.156 75.7397L139.251 75.8096L139.254 75.8065H139.257L139.639 76.0977L140.122 76.4558C140.253 76.2678 140.322 76.0286 140.265 75.7801C140.211 75.544 140.059 75.3708 139.898 75.2675V75.2667Z" fill="#6726C0"/>
<path id="Vector_72" d="M135.783 51.7519L135.787 51.7488L135.318 51.3729L135.783 51.7519Z" fill="#6726C0"/>
<path id="Vector_73" d="M128.245 60.1519L128.71 60.7608L129.184 60.1604L128.716 59.7822L128.245 60.1519Z" fill="#6726C0"/>
<path id="Vector_74" d="M128.653 84.003L128.668 83.3965H128.653V84.003Z" fill="#6726C0"/>
<path id="Vector_75" d="M118.854 75.439L118.833 75.4181C118.535 75.1183 118.091 75.0391 117.742 75.2177C117.557 75.3117 117.366 75.4996 117.319 75.7878C117.273 76.0572 117.375 76.291 117.497 76.4549L117.977 76.0969L117.994 76.0844L118.349 75.7963C118.355 75.7963 118.358 75.8025 118.364 75.8087L118.456 75.7419C118.463 75.7513 118.469 75.7629 118.474 75.7784L118.418 75.839L118.477 75.7878L118.489 75.7784V75.7815L119.607 77.3364L120.323 78.2303L120.347 78.2093L120.77 77.8303C120.773 77.8365 120.779 77.8396 120.785 77.8458L118.871 75.4631L118.854 75.439Z" fill="#6726C0"/>
<path id="Vector_76" d="M140.265 75.7785C140.211 75.5424 140.059 75.3692 139.898 75.2659C139.564 75.057 139.105 75.0904 138.786 75.4173L138.756 75.4476L136.72 77.8334L136.714 77.8396L137.116 78.1821L137.17 78.2303L138.413 76.7725L139.129 75.7754L139.132 75.7785L139.207 75.8453L139.135 75.7722V75.7691L139.156 75.7388L139.251 75.8087L139.254 75.8056H139.257L139.639 76.0969L140.122 76.4549C140.253 76.267 140.322 76.0278 140.265 75.7792V75.7785Z" fill="#6726C0"/>
<path id="Vector_77" d="M135.318 51.3729L135.783 51.7519L135.787 51.7488L135.318 51.3729Z" fill="#6726C0"/>
<path id="Vector_78" d="M128.716 59.7822L128.245 60.1519L128.71 60.7608L129.184 60.1604L128.716 59.7822Z" fill="#6726C0"/>
<path id="Vector_79" d="M128.653 83.3965V84.003L128.668 83.3965H128.653Z" fill="#6726C0"/>
<path id="Vector_80" d="M118.872 75.4631L118.855 75.439L118.834 75.4181C118.536 75.1183 118.092 75.0391 117.743 75.2177C117.558 75.3117 117.367 75.4996 117.319 75.7878C117.274 76.0572 117.376 76.291 117.498 76.4549L117.978 76.0969L117.995 76.0844L118.35 75.7963C118.356 75.7963 118.359 75.8025 118.365 75.8087L118.457 75.7419C118.464 75.7513 118.47 75.7629 118.475 75.7784L118.419 75.839L118.478 75.7878L118.49 75.7784V75.7815L119.608 77.3364L120.324 78.2303L120.348 78.2093L120.771 77.8303C120.774 77.8365 120.78 77.8396 120.786 77.8458L118.872 75.4631Z" fill="#6726C0"/>
<path id="Vector_81" d="M140.265 75.7785C140.211 75.5424 140.059 75.3692 139.898 75.2659C139.564 75.057 139.105 75.0904 138.786 75.4173L138.756 75.4476L136.72 77.8334L136.714 77.8396L137.116 78.1821L137.17 78.2303L138.413 76.7725L139.129 75.7754L139.132 75.7785L139.207 75.8453L139.135 75.7722V75.7691L139.156 75.7388L139.251 75.8087L139.254 75.8056H139.257L139.639 76.0969L140.122 76.4549C140.253 76.267 140.322 76.0278 140.265 75.7792V75.7785Z" fill="#6726C0"/>
<path id="Vector_82" d="M135.318 51.3729L135.783 51.7519L135.787 51.7488L135.318 51.3729Z" fill="#6726C0"/>
<path id="Vector_83" d="M128.716 59.7822L128.245 60.1519L128.71 60.7608L129.184 60.1604L128.716 59.7822Z" fill="#6726C0"/>
<path id="Vector_84" d="M128.653 83.3965V84.003L128.668 83.3965H128.653Z" fill="#6726C0"/>
<path id="Vector_85" d="M118.872 75.4631L118.855 75.439L118.834 75.4181C118.536 75.1183 118.092 75.0391 117.743 75.2177C117.558 75.3117 117.367 75.4996 117.319 75.7878C117.274 76.0572 117.376 76.291 117.498 76.4549L117.978 76.0969L117.995 76.0844L118.35 75.7963C118.356 75.7963 118.359 75.8025 118.365 75.8087L118.457 75.7419C118.464 75.7513 118.47 75.7629 118.475 75.7784L118.419 75.839L118.478 75.7878L118.49 75.7784V75.7815L119.608 77.3364L120.324 78.2303L120.348 78.2093L120.771 77.8303C120.774 77.8365 120.78 77.8396 120.786 77.8458L118.872 75.4631Z" fill="#6726C0"/>
<path id="Vector_86" d="M152.124 82.1205C152.124 87.1709 147.652 91.3662 143.094 91.3662V92.5786C148.287 92.5786 153.316 87.8644 153.316 82.1205H152.124Z" fill="#6726C0"/>
<path id="Vector_87" d="M137.129 89.6234C135.627 88.5136 134.574 86.8586 134.276 84.6033C134.264 84.5272 134.256 84.4518 134.246 84.3757L133.653 84.4425L133.06 84.5093C133.357 87.2166 134.601 89.2537 136.428 90.6058C138.241 91.9424 140.596 92.5793 143.094 92.5793V91.3669C140.781 91.3669 138.691 90.779 137.13 89.6242L137.129 89.6234Z" fill="#6726C0"/>
<path id="Vector_88" d="M139.639 76.0969L139.258 75.8056H139.255L139.252 75.8087L139.156 75.7396L139.135 75.7699H139.132L139.129 75.7754L138.414 76.7733L137.296 78.3343L137.293 78.3374L135.197 81.2622L133.173 84.0845L133.652 84.4425L134.136 84.7998L134.276 84.6033L140.116 76.4611L140.122 76.4549L139.639 76.0969Z" fill="#6726C0"/>
<path id="Vector_89" d="M140.265 75.7785C140.211 75.5424 140.059 75.3692 139.898 75.2659C139.564 75.057 139.105 75.0904 138.786 75.4173L139.132 75.7691L139.135 75.7722V75.7691L139.156 75.7388L139.251 75.8087L139.254 75.8056H139.257L139.639 76.0969L140.117 76.4603L140.123 76.4541C140.254 76.2662 140.323 76.027 140.266 75.7785H140.265Z" fill="#6726C0"/>
<path id="Vector_90" d="M139.561 76.2032L139.582 76.1761L139.218 75.8545L139.206 75.8452L139.134 75.7722C139.134 75.7722 139.134 75.7784 139.131 75.7784C139.107 75.8297 139.089 75.8965 139.092 75.9757C139.092 75.9998 139.095 76.0238 139.101 76.0541C139.131 76.1815 139.209 76.2599 139.271 76.2995C139.333 76.336 139.399 76.3508 139.459 76.3454C139.527 76.3423 139.587 76.3151 139.628 76.2724L139.56 76.2025L139.561 76.2032Z" fill="#6726C0"/>
<path id="Vector_91" d="M139.581 76.1761L139.218 75.8545L139.206 75.8452L139.132 75.7784L139.129 75.7753L138.756 75.4484L136.72 77.8342L137.116 78.1829L137.17 78.231L137.292 78.3374L137.62 78.6279L137.626 78.6193L138.89 77.1399L139.629 76.2731L139.656 76.2421L139.581 76.1761Z" fill="#6726C0"/>
<path id="Vector_92" d="M138.414 76.7733L137.17 78.231L137.117 78.1829L136.714 77.8404C135.433 79.3898 134.067 80.8079 132.678 81.8268C131.285 82.8481 129.932 83.4244 128.668 83.3972L128.656 84.0037H128.653V84.0705L128.641 84.6103H128.653C130.287 84.6437 131.887 83.9012 133.378 82.8093C133.995 82.3573 134.603 81.833 135.197 81.263C136.038 80.4569 136.851 79.5591 137.62 78.6287L137.626 78.6194L137.295 78.3343L138.414 76.7733Z" fill="#6726C0"/>
<path id="Vector_93" d="M102.575 69.2579C102.575 81.5294 92.7279 91.3662 80.6484 91.3662V92.5785C93.3748 92.5785 103.767 82.2113 103.767 69.2579H102.575Z" fill="#6726C0"/>
<path id="Vector_94" d="M58.8436 69.2579H57.6514C57.6514 82.2082 68.1063 92.5785 80.6478 92.5785V91.3662C68.7532 91.3662 58.8436 81.5294 58.8436 69.2579Z" fill="#6726C0"/>
<path id="Vector_95" d="M57.6514 69.2579H58.8436C58.8436 57.0415 68.7586 47.0223 80.6478 47.0223V45.8099C68.1002 45.8099 57.6514 56.3713 57.6514 69.2579Z" fill="#6726C0"/>
<path id="Vector_96" d="M80.6484 45.8099V47.0223C92.7218 47.0223 102.575 57.0408 102.575 69.2579H103.767C103.767 56.3713 93.3809 45.8099 80.6484 45.8099Z" fill="#6726C0"/>
<path id="Vector_97" d="M37.3729 79.5466H36.1807V81.6808H37.3729V79.5466Z" fill="#6726C0"/>
<path id="Vector_98" d="M35.4207 77.5608V78.7732C35.8323 78.7732 36.1806 79.1312 36.1806 79.5459H37.3728C37.3728 78.4578 36.4907 77.5601 35.4199 77.5601L35.4207 77.5608Z" fill="#6726C0"/>
<path id="Vector_99" d="M33.4685 79.5467H34.6607C34.6607 79.1312 35.0098 78.774 35.4207 78.774V77.5616C34.3507 77.5616 33.4678 78.4587 33.4678 79.5475L33.4685 79.5467Z" fill="#6726C0"/>
<path id="Vector_100" d="M34.661 79.5466H33.4688V81.6808H34.661V79.5466Z" fill="#6726C0"/>
<path id="Vector_101" d="M33.4687 81.6809C33.4687 86.9923 29.417 91.0509 24.251 91.0509V92.2632C30.07 92.2632 34.6609 87.6648 34.6609 81.6809H33.4687Z" fill="#6726C0"/>
<path id="Vector_102" d="M15.036 81.6809H13.8438C13.8438 87.671 18.5599 92.2632 24.2506 92.2632V91.0509C19.2037 91.0509 15.036 86.9861 15.036 81.6809Z" fill="#6726C0"/>
<path id="Vector_103" d="M15.036 56.9569H13.8438V81.6809H15.036V56.9569Z" fill="#6726C0"/>
<path id="Vector_104" d="M13.8438 56.9569H15.036C15.036 51.7185 19.2037 47.6505 24.2506 47.6505V46.4382C18.563 46.4382 13.8438 51.0281 13.8438 56.9569Z" fill="#6726C0"/>
<path id="Vector_105" d="M24.251 46.4375V47.6498C29.42 47.6498 33.4687 51.7116 33.4687 56.9562H34.6609C34.6609 51.0328 30.0669 46.4375 24.251 46.4375Z" fill="#6726C0"/>
<path id="Vector_106" d="M34.661 56.9569H33.4688V59.2185H34.661V56.9569Z" fill="#6726C0"/>
<path id="Vector_107" d="M34.661 59.2184H33.4688C33.4688 60.2614 34.3692 61.1405 35.4217 61.1405V59.9282C34.9924 59.9282 34.6617 59.5554 34.6617 59.2192L34.661 59.2184Z" fill="#6726C0"/>
<path id="Vector_108" d="M36.1808 59.2184C36.1808 59.5547 35.8501 59.9275 35.4209 59.9275V61.1398C36.4733 61.1398 37.3738 60.2607 37.3738 59.2177H36.1816L36.1808 59.2184Z" fill="#6726C0"/>
<path id="Vector_109" d="M37.3729 56.9569H36.1807V59.2185H37.3729V56.9569Z" fill="#6726C0"/>
<path id="Vector_110" d="M36.1807 56.9569H37.3729C37.3729 51.8428 41.5407 47.6505 46.7128 47.6505V46.4382C40.9022 46.4382 36.1807 51.1555 36.1807 56.9569Z" fill="#6726C0"/>
<path id="Vector_111" d="M46.7139 46.4375V47.6498C51.7577 47.6498 55.9285 51.839 55.9285 56.9562H57.1207C57.1207 51.1571 52.4076 46.4375 46.7139 46.4375Z" fill="#6726C0"/>
<path id="Vector_112" d="M57.1209 56.9569H55.9287V81.6809H57.1209V56.9569Z" fill="#6726C0"/>
<path id="Vector_113" d="M55.9285 81.6809C55.9285 86.8649 51.7546 91.0509 46.7139 91.0509V92.2632C52.4107 92.2632 57.1207 87.5406 57.1207 81.6809H55.9285Z" fill="#6726C0"/>
<path id="Vector_114" d="M37.3739 81.6809H36.1816C36.1816 87.5468 40.9008 92.2632 46.7137 92.2632V91.0509C41.5447 91.0509 37.3739 86.8618 37.3739 81.6809Z" fill="#6726C0"/>
<path id="Vector_115" d="M188.175 62.0251L188.172 62.0314L188.169 62.0376L188.661 62.3436L188.175 62.0251Z" fill="#6726C0"/>
<path id="Vector_116" d="M180.099 66.8721V67.4786H180.12V67.4755L180.099 66.8721Z" fill="#6726C0"/>
<path id="Vector_117" d="M179.866 68.246L179.941 68.2794L180.024 68.2911L180.099 67.6938V67.6876L179.866 68.246Z" fill="#6726C0"/>
<path id="Vector_118" d="M189.468 63.6716L188.862 64.3201L189.295 64.7379L189.835 64.4871L189.468 63.6716Z" fill="#6726C0"/>
<path id="Vector_119" d="M187.205 75.6061L187.196 75.6146L187.188 75.627L187.596 76.0029L187.205 75.6061Z" fill="#6726C0"/>
<path id="Vector_120" d="M180.757 79.5164V79.5102L180.733 79.3222V79.3191L180.716 79.1708V79.7773H180.752L180.787 79.7742V79.768L180.757 79.5164Z" fill="#6726C0"/>
<path id="Vector_121" d="M180.745 79.3191H180.716V79.9256L180.73 79.7773V79.7742L180.757 79.5164V79.5101L180.775 79.3253V79.3222L180.745 79.3191Z" fill="#6726C0"/>
<path id="Vector_122" d="M189.504 75.8025L188.961 76.4611L189.417 76.8486L189.93 76.5426L189.504 75.8025Z" fill="#6726C0"/>
<path id="Vector_123" d="M120.276 78.2707L119.862 78.6132L119.868 78.6225L119.877 78.631L120.279 78.2738L120.324 78.2311L120.276 78.2707Z" fill="#6726C0"/>
<path id="Vector_124" d="M118.854 75.4391L118.833 75.4181L118.484 75.7722L118.475 75.7784L118.419 75.839L118.479 75.7878L118.49 75.7784L118.872 75.4631L118.854 75.4391Z" fill="#6726C0"/>
<path id="Vector_125" d="M118.451 75.7272C118.448 75.721 118.445 75.7179 118.445 75.7179L118.349 75.7963L117.995 76.0845L118.365 75.8088L118.457 75.742L118.46 75.7389L118.451 75.7264V75.7272Z" fill="#6726C0"/>
<path id="Vector_126" d="M124.446 84.0845L123.967 84.4425L124.556 84.5093L124.584 84.2755L124.446 84.0845Z" fill="#6726C0"/>
<path id="Vector_127" d="M122.766 50.9971L122.298 51.373L122.384 51.3062L122.768 51.0002L122.766 50.9971Z" fill="#6726C0"/>
<path id="Vector_128" d="M128.716 59.7822L128.245 60.1519L128.71 60.7608L129.184 60.1604L128.716 59.7822Z" fill="#6726C0"/>
<path id="Vector_129" d="M135.318 51.3729L135.783 51.7519L135.787 51.7488L135.318 51.3729Z" fill="#6726C0"/>
<path id="Vector_130" d="M133.173 84.0845L133.035 84.2755L133.06 84.5093L133.652 84.4425L133.173 84.0845Z" fill="#6726C0"/>
<path id="Vector_131" d="M139.257 75.8057H139.254L139.161 75.7327C139.161 75.7327 139.158 75.7358 139.155 75.7389L139.251 75.8088L139.638 76.0969L139.256 75.8057H139.257Z" fill="#6726C0"/>
<path id="Vector_132" d="M139.132 75.7699L138.786 75.4181L138.756 75.4484L139.129 75.7753L139.132 75.7784L139.206 75.8452L139.132 75.7699Z" fill="#6726C0"/>
<path id="Vector_133" d="M128.653 83.3965V84.003L128.668 83.3965H128.653Z" fill="#6726C0"/>
<path id="Vector_134" d="M136.72 77.8342L136.714 77.8404L137.116 78.1829L136.72 77.8342Z" fill="#6726C0"/>
</g>
</g>
</g>
<defs>
<clipPath id="clip0_3863_597">
<rect width="203.876" height="92.4032" fill="white" transform="translate(0.428711 0.175293)"/>
</clipPath>
</defs>
</svg>
