<svg width="35" height="40" viewBox="0 0 35 40" fill="none" xmlns="http://www.w3.org/2000/svg">
<path d="M14.6806 19.8945L1.01363 0.697497H4.60813C4.97679 0.697497 5.24013 0.776498 5.39813 0.934499C5.58246 1.0925 5.74046 1.27683 5.87213 1.4875L17.4061 18.1565C17.5115 17.7088 17.7353 17.2348 18.0776 16.7345L28.8611 1.527C28.9928 1.29 29.1508 1.0925 29.3351 0.934499C29.5458 0.776498 29.7828 0.697497 30.0461 0.697497H33.5221L19.7761 19.697L34.0751 40H30.4806C30.112 40 29.8223 39.8947 29.6116 39.684C29.401 39.447 29.2298 39.2232 29.0981 39.0125L17.1691 21.6325C17.0375 22.1592 16.84 22.6068 16.5766 22.9755L5.12163 39.0915C4.93729 39.3285 4.73979 39.5392 4.52913 39.7235C4.34479 39.9078 4.10779 40 3.81813 40H0.460625L14.6806 19.8945Z" fill="#F7F7F7"/>
</svg>
